<svg clip-rule="evenodd" fill-rule="evenodd" stroke-linejoin="round" stroke-miterlimit="1.41421" viewBox="0 0 560 400" xmlns="http://www.w3.org/2000/svg" xmlns:xlink="http://www.w3.org/1999/xlink"><linearGradient id="a"><stop offset="0" stop-color="#0052cc"/><stop offset=".18" stop-color="#0052cc"/><stop offset="1" stop-color="#2684ff"/></linearGradient><linearGradient id="b" gradientTransform="matrix(-39.33 -22.6 22.6 -39.33 59.68 67.65)" gradientUnits="userSpaceOnUse" x1="0" x2="1" xlink:href="#a" y1="0" y2="0"/><linearGradient id="c" gradientTransform="matrix(39.34 22.61 -22.61 39.34 3.07 -.37)" gradientUnits="userSpaceOnUse" x1="0" x2="1" xlink:href="#a" y1="0" y2="0"/><g fill-rule="nonzero" transform="matrix(.979708 0 0 .979708 30.0452 168.739)"><path d="m140 40.48c0-13.2 7.74-22.79 20.94-22.79s20.77 9.59 20.77 22.79-7.66 23-20.77 23-20.94-9.8-20.94-23zm188 22.09h-7.57v-7.22c-2.742 5.087-8.122 8.222-13.9 8.1-10.12 0-15.93-7-15.93-19.09l-.02-25.79h7.57v26.57c0 7.92 3.17 11.44 10.38 11.44 7 0 11.88-4.66 11.88-13.55v-24.46h7.59zm16.44-18.69c1.06 7.48 5.9 12.32 16.28 12.32 4.565-.004 9.094-.81 13.38-2.38v7c-3.62 1.92-9.16 2.63-13.65 2.63-16.46 0-23.67-9.5-23.67-23 0-13.29 7.39-22.79 20.77-22.79 13.55 0 19 9.42 19 22.79v3.43zm133.75 0c1.06 7.48 5.9 12.32 16.28 12.32 4.565-.004 9.094-.81 13.38-2.38v7c-3.61 1.92-9.15 2.63-13.64 2.63-16.46 0-23.67-9.5-23.67-23 0-13.29 7.39-22.79 20.77-22.79 13.55 0 19 9.42 19 22.79v3.43zm-343.72 16.12c-3.61 2.38-9.33 3.43-15.31 3.43-19 0-29.74-11.44-29.74-29.65 0-17.6 10.74-29.92 29.57-29.92 5.63 0 11.26 1.06 15.4 4v7.66c-4.14-2.64-8.71-4-15.4-4-13.55 0-21.65 9-21.65 22.26s8.36 22.09 22.09 22.09c5.21.048 10.355-1.16 15-3.52zm330.09 1.42c-2.64 1.41-6.69 2-10.74 2-15.66 0-23-9.5-23-23 0-13.29 7.3-22.79 23-22.79 3.606-.118 7.191.604 10.47 2.11v7c-3.105-1.463-6.508-2.185-9.94-2.11-11.44 0-16.1 7.22-16.1 15.75s4.75 15.85 16.27 15.85c3.402.09 6.792-.446 10-1.58zm-184.27 1.41c-7.22 0-11.79-3.43-11.79-11.53v-51.12h7.57v50.24c0 4 2.64 5.37 5.9 5.37.734.012 1.469-.018 2.2-.09v6.78c-1.274.273-2.577.391-3.88.35zm-31.29-.26h-7.39v-37h-7.13v-7h7.13v-4.84c0-8.18 4.58-13.73 14-13.73 1.725-.01 3.442.226 5.1.7v7c-1.566-.298-3.156-.445-4.75-.44-4.66 0-7 2.73-7 6.69l.04 4.62h11.35v7h-11.35zm144.1 0h-7.57v-44h7.57v7.22c2.742-5.087 8.122-8.222 13.9-8.1 10.12 0 15.93 7 15.93 19.1v25.78h-7.57v-26.57c0-7.92-3.17-11.44-10.38-11.44-7 0-11.88 4.66-11.88 13.55zm-195 0h-7.57v-44h7.57v7.22c2.742-5.087 8.122-8.222 13.9-8.1 10.12 0 15.93 7 15.93 19.1v25.78h-7.57v-26.57c0-7.92-3.17-11.44-10.38-11.44-7 0-11.88 4.66-11.88 13.55zm-50.71-22.09c0 8.36 4.14 15.93 13.55 15.93s13.38-7.57 13.38-15.93-4-15.75-13.37-15.75-13.54 7.39-13.54 15.75zm196.96-3.03h24.55c-.44-8.18-4.14-12.85-11.7-12.85-8.01-.05-12.06 5.14-12.85 12.8zm133.76 0h24.55c-.44-8.18-4.14-12.85-11.7-12.85-8.01-.05-12.06 5.14-12.85 12.8z" fill="#253858"/><path d="m2.23 49.53c-.65 1.06-1.38 2.29-2 3.27-.551.932-.251 2.151.67 2.72l13 8c.316.195.68.298 1.051.298.704 0 1.359-.372 1.719-.978.52-.87 1.19-2 1.92-3.21 5.15-8.5 10.33-7.46 19.67-3l12.89 6.13c.269.128.562.194.86.194.791 0 1.511-.47 1.83-1.194l6.19-14c.435-.993-.014-2.169-1-2.62-2.72-1.28-8.13-3.83-13-6.18-17.52-8.51-32.41-7.96-43.8 10.57z" fill="url(#b)"/><path d="m60.52 17.76c.65-1.06 1.38-2.29 2-3.27.551-.932.251-2.151-.67-2.72l-13-8c-.33-.222-.719-.341-1.117-.341-.714 0-1.376.382-1.733 1.001-.52.87-1.19 2-1.92 3.21-5.15 8.5-10.33 7.46-19.67 3l-12.85-6.1c-.269-.128-.562-.194-.86-.194-.791 0-1.511.47-1.83 1.194l-6.19 14c-.435.993.014 2.169 1 2.62 2.72 1.28 8.13 3.83 13 6.18 17.56 8.5 32.45 7.93 43.84-10.58z" fill="url(#c)"/></g></svg>