<?xml version="1.0" encoding="utf-8"?>
<svg viewBox="4.501 -0.003 43.389 60" xmlns="http://www.w3.org/2000/svg">
  <defs>
    <style>.B{fill-rule:evenodd}.C{fill:#dcd9d8}.D{fill:#d33833}.E{fill:#231f20}.F{fill:#f7e4cd}.G{stroke:#d33833}.H{stroke-width:.257}</style>
  </defs>
  <path d="M 47.236 28.912 C 47.236 40.799 37.815 50.435 26.195 50.435 C 14.574 50.435 5.155 40.799 5.155 28.912 C 5.155 17.026 14.574 7.389 26.195 7.389 C 37.815 7.389 47.236 17.026 47.236 28.912" class="B D"/>
  <path d="M 6.01 34.243 C 6.01 34.243 4.488 11.799 25.167 11.158 L 23.724 8.752 L 12.501 12.502 L 9.314 16.19 L 6.509 21.561 L 4.906 27.814 L 5.388 31.982" fill="#ef3d3a"/>
  <path d="M 11.783 14.233 C 8.089 18.01 5.806 23.226 5.806 28.995 C 5.806 34.764 8.093 39.981 11.783 43.755 C 15.472 47.53 20.566 49.862 26.195 49.862 C 31.823 49.862 36.913 47.531 40.606 43.755 C 44.3 39.98 46.583 34.762 46.583 28.995 C 46.583 23.228 44.296 18.008 40.606 14.233 C 36.917 10.457 31.823 8.126 26.195 8.126 C 20.566 8.126 15.476 10.457 11.783 14.233 Z M 10.849 44.67 C 6.925 40.658 4.501 35.113 4.501 28.997 C 4.501 22.881 6.927 17.335 10.849 13.323 C 14.771 9.311 20.201 6.821 26.195 6.823 C 32.188 6.825 37.618 9.311 41.54 13.323 C 45.462 17.335 47.89 22.881 47.89 28.997 C 47.89 35.113 45.464 40.658 41.54 44.67 C 37.616 48.683 32.188 51.17 26.195 51.17 C 20.201 51.17 14.771 48.683 10.849 44.67" class="E"/>
  <g class="B" transform="matrix(1.874828, 0, 0, 1.874828, -3.9376, 0.002622)">
    <path d="M20.796 15.484l-1.7.257-2.31.257-1.496.043-1.454-.043-1.112-.342-.983-1.07-.77-2.18-.17-.47-1.026-.342-.6-.983L8.74 9.2l.47-1.24 1.112-.385.898.428.428.94.513-.086.17-.214-.17-.983-.043-1.24.257-1.7-.01-.977.78-1.246 1.368-.983L16.905.477l2.65.385 2.31 1.667 1.07 1.7.684 1.24.17 3.078-.513 2.65-.94 2.35-.898 1.24" fill="#f0d6b7"/>
    <path d="M19.342 22.88l-6.114.257v1.026l.513 3.59-.257.3L9.21 26.6l-.3-.513-.428-4.83-.983-2.907-.214-.684 3.42-2.35 1.07-.428.94 1.154.812.727.94.3.427.128.513 2.223.385.47.983-.342-.684 1.325 3.72 1.753-.47.257" fill="#335061"/>
    <path d="M9.21 7.96l1.112-.385.898.428.428.94.513-.086.128-.513-.257-.983.257-2.352-.214-1.283.77-.898 1.667-1.325-.47-.64-2.352 1.154-.983.77-.556 1.197-.855 1.154-.257 1.368.17 1.454" fill="#6d6b6d"/>
    <path d="M10.962 3.94s.64-1.582 3.207-2.35.128-.556.128-.556l-2.78 1.07-1.07 1.07-.47.855.983-.086M9.68 7.66s-.898-2.993 2.523-3.42l-.128-.513-2.35.556-.684 2.223.17 1.454.47-.3" class="C"/>
    <path d="M11.048 11.636l.56-.542a.36.36 0 0 0 .295.329c.043.3.17 2.993 2 4.447.168.133-1.368-.214-1.368-.214l-1.368-2.138m7.738-2.695s.1-1.296.45-1.196.35.45.35.45-.848.548-.798.748" class="F"/>
  </g>
  <path d="M 38.179 11.396 C 38.179 11.396 36.857 11.677 36.735 12.84 C 36.613 14.002 38.179 13.08 38.419 13.001 M 28.497 11.477 C 28.497 11.477 26.735 11.717 26.735 12.84 C 26.735 13.963 28.741 13.882 29.299 13.402" class="F"/>
  <g class="B" transform="matrix(1.874828, 0, 0, 1.874828, -3.9376, 0.002622)">
    <path d="M11.475 8.9S9.85 7.916 9.68 8.857s-.556 1.625.257 2.608l-.556-.17-.513-1.325-.17-1.283.983-1.026 1.112.086.64.513.043.64m.77-2.694s.727-3.762 4.404-4.5c3.027-.598 4.617.128 5.216.812 0 0-2.694-3.206-5.26-2.223s-4.446 2.8-4.406 3.943l.043 1.967m9.92-3.25s-1.24-.043-1.283 1.07a.86.86 0 0 0 .085.342s.984-1.112 1.582-.513m-5.813.628s-.213-1.706-1.668-.714c-.94.64-.855 1.54-.684 1.7s.125.515.255.28.087-1.006.558-1.22 1.24-.453 1.54-.055" class="F"/>
    <path d="M12.715 16.04l-4.02 1.796s1.667 6.627.812 8.68l-.6-.214-.043-2.523L7.756 19l-.47-1.325 4.2-2.822 1.24 1.197m.404 3.655l.57.696v2.565h-.684l-.085-2c0-.214.085-.983.085-.983m.127 3.367l-1.924.085.556.385 1.368.214" fill="#49728b"/>
    <g fill="#335061">
      <path d="M19.727 22.923l1.582-.043.385 3.934-1.625.214-.342-4.104"/>
      <path d="M20.155 22.923l2.394-.128.983-2.608c0-.128.855-3.59.855-3.59l-1.924-2.01-.385-.342-1.026 1.026v3.976l-.898 3.677"/>
    </g>
    <path d="M21.224 22.624l-1.496.3.214 1.197c.556.257 1.496-.428 1.496-.428m-.172-8.55l2.993 2.223.086-1.026-2.266-2.095-.812.898" fill="#49728b"/>
    <path d="M14.627 31.346l-.885-3.592-.44-2.65-.073-1.967 4.006-.213h2.493l-.227 4.5.385 3.463-.043.64-3.25.257-1.967-.428" fill="#fff"/>
    <path d="M19.17 22.88s-.214 4.447.428 7.6c0 0-1.283.812-3.164 1.026l3.59-.128.428-.257-.513-7.012-.128-1.497" class="C"/>
    <path d="M21.767 26.472l1.667-.47 3.164-.17.47-1.454-.855-2.523-.983-.128-1.368.428-1.313.64-.697-.128-.543.213" fill="#fff"/>
    <path d="M21.737 25.616s1.112-.513 1.283-.47l-.47-2.352.556-.214.385 2.48 2.608.128s.513-.983.385-2l.47 1.368.043.77-.684 1.026-.77.17-1.283-.043-.428-.556-1.496.214-.47.17" class="C"/>
  </g>
  <path d="M 33.664 42.336 L 31.902 37.848 L 30.059 35.204 C 30.059 35.204 30.46 34.079 31.02 34.079 L 32.863 34.079 L 34.626 34.721 L 34.466 37.687 L 33.664 42.336" fill="#fff"/>
  <path d="M 34.009 40.818 C 34.009 40.818 31.765 36.487 31.765 35.849 C 31.765 35.849 32.166 34.888 32.727 35.128 C 33.287 35.368 34.489 36.009 34.489 36.009 L 34.489 34.486 L 31.763 33.924 L 29.92 34.164 L 33.045 41.539 L 33.686 41.62" class="B C"/>
  <path d="M 24.204 30.234 L 21.984 29.99 L 19.899 29.349 L 19.899 30.071 L 20.917 31.196 L 24.104 32.64" fill="#fff"/>
  <g class="B" transform="matrix(1.874828, 0, 0, 1.874828, -3.9376, 0.002622)">
    <path d="M13.1 16.254s1.325.556 1.753.428l.043.513-1.197-.256-.727-.513.128-.17" class="C"/>
    <path d="M21.762 18.323c-.725-.02-1.38-.107-1.955-.27.04-.235-.034-.466.025-.636.16-.115.428-.113.67-.14-.21-.103-.503-.143-.744-.084-.006-.163-.08-.264-.123-.392.408-.146 1.37-1.1 1.912-.784.258.15.368 1.01.388 1.426.017.346-.03.696-.173.88" class="D"/>
  </g>
  <path d="M 36.862 34.355 C 35.503 34.318 34.275 34.154 33.197 33.849 C 33.272 33.408 33.133 32.975 33.244 32.656 C 33.544 32.441 34.046 32.445 34.5 32.394 C 34.106 32.201 33.557 32.126 33.105 32.237 C 33.094 31.931 32.955 31.742 32.875 31.502 C 33.64 31.228 35.443 29.439 36.459 30.032 C 36.943 30.313 37.149 31.925 37.187 32.705 C 37.219 33.354 37.131 34.01 36.862 34.355 Z" fill="none" class="G H"/>
  <path d="M 30.359 32.132 L 30.347 32.443 C 29.922 32.724 29.237 32.718 28.773 32.953 C 29.459 32.983 30.001 33.148 30.469 33.384 L 30.439 34.162 C 29.661 34.694 28.951 35.489 28.034 35.988 C 27.603 36.224 26.08 36.832 25.619 36.725 C 25.357 36.665 25.334 36.341 25.231 36.035 C 25.01 35.379 24.5 34.342 24.453 33.358 C 24.397 32.115 24.271 30.034 25.61 30.289 C 26.717 30.523 27.785 30.914 28.782 31.449 C 29.294 31.73 29.588 32.073 30.364 32.133" class="B D"/>
  <path d="M 30.359 32.132 L 30.347 32.443 C 29.922 32.724 29.237 32.718 28.773 32.953 C 29.459 32.983 30.001 33.148 30.469 33.384 L 30.439 34.162 C 29.661 34.694 28.951 35.489 28.034 35.988 C 27.603 36.224 26.08 36.832 25.619 36.725 C 25.357 36.665 25.334 36.341 25.231 36.035 C 25.01 35.379 24.5 34.342 24.453 33.358 C 24.397 32.115 24.271 30.034 25.61 30.289 C 26.717 30.523 27.785 30.914 28.782 31.449 C 29.294 31.73 29.588 32.073 30.364 32.133 Z" fill="none" class="G H"/>
  <path d="M 31.131 33.615 C 31.013 32.94 30.874 32.745 30.929 32.152 C 32.734 30.949 33.072 34.218 31.131 33.615" class="B D"/>
  <path d="M 31.131 33.615 C 31.013 32.94 30.874 32.745 30.929 32.152 C 32.734 30.949 33.072 34.218 31.131 33.615 Z" fill="none" class="G H"/>
  <path d="M 33.746 34.162 C 33.746 34.162 33.184 33.36 33.585 33.12 C 33.986 32.88 34.388 33.12 34.628 32.718 C 34.868 32.317 34.628 32.077 34.708 31.593 C 34.789 31.11 35.19 31.031 35.589 30.952 C 35.989 30.874 37.112 30.712 37.273 31.114 L 36.791 29.67 L 35.829 29.351 L 32.783 31.114 L 32.622 31.995 L 32.622 33.757 M 25.31 36.805 L 24.998 33.056 C 24.811 31.19 25.448 31.515 27.065 31.515 C 27.312 31.515 28.564 31.809 28.677 31.997 C 29.114 32.889 27.927 32.69 29.183 33.365 C 30.226 33.933 32.067 33.02 31.645 31.757 C 31.409 31.475 30.417 31.668 30.061 31.485 L 28.182 30.51 C 27.385 30.097 25.544 29.494 24.695 30.071 C 22.542 31.533 24.83 35.193 25.598 36.719" fill="#ef3d3a" class="B"/>
  <path d="M 27.438 8.407 C 25.253 7.901 24.168 9.322 23.504 10.798 C 22.914 10.655 23.129 9.851 23.317 9.441 C 23.692 8.364 25.285 6.934 26.571 7.127 C 27.126 7.211 27.876 7.718 27.456 8.407 M 38.083 10.877 L 38.186 10.88 C 38.679 11.906 39.123 12.993 39.729 13.88 C 39.311 14.851 36.57 15.712 36.611 13.966 C 37.204 13.708 38.227 13.914 38.754 13.582 C 38.45 12.748 38.012 12.037 38.079 10.858 M 28.555 10.922 C 29.024 11.78 29.174 12.684 29.841 13.331 C 30.141 13.623 30.722 13.979 30.435 14.793 C 30.231 15.106 29.937 15.351 29.592 15.496 C 28.551 15.804 26.123 15.56 26.967 14.263 C 27.829 14.3 28.984 14.821 29.629 14.197 C 29.134 13.41 28.255 11.844 28.579 10.923 M 37.71 19.651 C 36.142 20.658 34.395 21.751 31.827 21.499 C 31.277 21.023 31.069 19.962 31.602 19.259 C 31.879 19.735 31.705 20.614 32.479 20.746 C 33.936 20.995 35.633 19.855 36.679 19.456 C 37.329 18.359 36.622 17.956 36.037 17.251 C 34.838 15.807 33.231 14.015 33.289 11.852 C 33.773 11.501 33.814 12.388 33.885 12.549 C 34.511 14.011 36.086 15.886 37.235 17.142 C 37.517 17.452 37.985 17.748 38.034 17.952 C 38.184 18.547 37.646 19.257 37.708 19.653 M 17.029 18.59 C 16.537 18.308 16.421 17.075 15.844 17.039 C 15.019 16.989 15.169 18.642 15.173 19.608 C 14.604 19.092 14.505 17.508 14.921 16.692 C 14.447 16.46 14.233 16.949 13.971 17.124 C 14.308 14.664 17.57 15.999 17.027 18.592 M 38.69 20.654 C 37.94 22.041 36.928 23.571 34.787 23.616 C 34.744 23.166 34.712 22.486 34.789 22.216 C 36.426 22.058 37.436 21.226 38.688 20.654 M 28.433 21.554 C 29.798 22.272 32.308 22.349 34.165 22.294 C 34.264 22.701 34.262 23.204 34.266 23.7 C 31.879 23.819 29.059 23.232 28.454 21.554 M 28.191 22.892 C 29.136 25.264 32.382 24.992 35.119 24.925 C 34.999 25.232 34.736 25.596 34.412 25.727 C 33.535 26.102 31.116 26.355 29.899 25.708 C 29.127 25.296 28.632 24.37 28.208 23.826 C 28.021 23.564 26.986 22.892 28.193 22.889" class="E B"/>
  <path d="M 37.579 35.992 L 34.095 41.513 C 34.646 39.893 34.883 37.182 34.965 35.113 C 36.118 34.573 37.106 35.234 37.579 35.994" fill="#81b0c4" class="B"/>
  <path d="M 43.541 42.812 C 42.299 43.06 41.428 44.267 40.218 44.189 C 40.884 43.251 42.048 42.876 43.541 42.812 M 44.088 44.755 C 43.076 44.862 41.889 45.025 40.863 44.942 C 41.351 44.2 43.22 44.455 44.088 44.755 M 44.439 46.427 C 43.302 46.451 41.889 46.429 40.809 46.339 C 41.446 45.653 43.702 46.084 44.439 46.427" class="E B"/>
  <path d="M 35.439 51.009 C 35.603 52.434 36.171 53.883 36.096 55.445 C 35.468 55.657 35.106 55.842 34.264 55.839 L 34.08 51.214 C 34.493 51.242 35.106 50.917 35.438 51.026" class="B C"/>
  <path d="M 33.608 29.974 C 33.038 30.349 32.55 30.812 32.003 31.211 C 30.788 31.271 30.124 31.127 29.232 30.429 C 29.247 30.373 29.337 30.397 29.339 30.33 C 30.64 30.911 32.293 30.094 33.608 29.974" fill="#f0d6b7" class="B"/>
  <path d="M 26.778 38.842 C 27.134 37.293 28.536 36.491 29.807 35.636 C 31.12 37.304 31.918 39.442 32.798 41.511 C 30.72 40.885 28.598 39.869 26.78 38.84" fill="#81b0c4" class="B"/>
  <path d="M 34.084 51.215 C 34.031 52.481 34.208 54.515 34.268 55.841 C 35.111 55.842 35.471 55.657 36.099 55.447 C 36.171 53.883 35.604 52.438 35.443 51.011 C 35.111 50.923 34.5 51.245 34.086 51.199 Z M 20.975 44.016 C 21.53 49.119 22.334 53.39 23.81 57.927 C 27.083 58.921 31.028 59.007 33.923 58.111 C 33.392 55.561 33.623 52.455 33.313 49.731 L 32.878 43.538 C 29.372 42.807 24.417 43.369 20.977 44.01 Z M 33.724 43.575 C 33.694 45.769 33.821 47.929 33.99 50.124 L 36.184 49.742 C 35.931 47.629 35.959 45.252 35.443 43.382 C 34.843 43.388 34.318 43.375 33.722 43.575 Z M 37.993 43.223 C 37.594 43.129 37.131 43.219 36.746 43.227 L 37.496 48.861 C 38.096 48.879 38.415 48.598 38.912 48.501 C 38.938 46.855 38.767 44.586 37.974 43.223 Z M 44.457 49.129 C 45.71 48.825 46.495 47.291 46.145 45.717 C 45.91 44.659 45.492 42.666 45.044 41.989 C 44.714 41.489 43.816 40.833 43.1 41.292 C 41.934 42.038 39.881 42.256 39.032 43.157 C 39.457 44.577 39.59 46.525 39.767 48.323 C 41.223 48.413 43.014 47.921 44.225 48.443 C 43.381 48.716 42.283 48.718 41.553 49.117 C 42.149 49.406 43.548 49.348 44.459 49.127 Z M 32.818 41.517 C 31.937 39.449 31.14 37.306 29.828 35.641 C 28.557 36.494 27.156 37.297 26.798 38.847 C 28.617 39.878 30.741 40.891 32.817 41.519 Z M 34.986 35.114 C 34.903 37.182 34.667 39.895 34.116 41.515 C 35.428 39.841 36.491 37.891 37.599 35.994 C 37.127 35.236 36.137 34.574 34.986 35.113 Z M 32.548 34.241 C 32.05 34.184 31.63 34.813 30.979 34.541 L 30.544 35.043 C 31.975 36.768 32.607 39.213 33.731 41.238 C 34.324 39.292 34.256 37.16 34.388 35.036 C 33.574 35.088 33.122 34.299 32.55 34.239 Z M 30.968 32.156 C 30.915 32.746 31.052 32.94 31.17 33.618 C 33.111 34.226 32.772 30.956 30.968 32.156 Z M 28.816 31.449 C 27.818 30.914 26.75 30.523 25.643 30.289 C 24.305 30.032 24.43 32.115 24.487 33.358 C 24.532 34.342 25.043 35.382 25.265 36.035 C 25.37 36.341 25.392 36.663 25.653 36.725 C 26.114 36.832 27.635 36.224 28.068 35.988 C 28.986 35.487 29.695 34.676 30.473 34.162 L 30.503 33.384 C 30.034 33.151 29.494 32.985 28.806 32.953 C 29.275 32.718 29.957 32.722 30.381 32.443 L 30.392 32.132 C 29.616 32.072 29.324 31.727 28.81 31.447 Z M 20.829 29.998 C 20.135 30.703 22.775 31.663 23.617 31.715 C 23.611 31.269 23.872 30.849 23.819 30.529 C 22.82 30.352 21.508 30.469 20.831 29.998 Z M 29.378 30.328 C 29.374 30.397 29.284 30.371 29.271 30.427 C 30.164 31.125 30.827 31.271 32.042 31.209 L 33.647 29.972 C 32.335 30.09 30.679 30.905 29.378 30.328 Z M 37.226 32.709 C 37.189 31.925 36.982 30.317 36.499 30.035 C 35.483 29.443 33.677 31.232 32.914 31.505 C 32.997 31.745 33.135 31.937 33.145 32.24 C 33.595 32.128 34.148 32.203 34.539 32.398 C 34.086 32.448 33.602 32.445 33.283 32.66 C 33.171 32.979 33.31 33.41 33.236 33.853 C 34.313 34.156 35.543 34.318 36.902 34.359 C 37.164 34.016 37.258 33.36 37.226 32.709 Z M 19.659 30.68 C 19.442 30.525 17.966 28.607 17.784 28.686 C 15.116 29.736 12.623 31.554 10.394 33.279 C 12.52 37.839 13.375 43.427 13.528 48.812 C 15.966 49.95 18.103 51.592 21.403 51.763 L 20.454 44.099 C 19.623 43.748 18.433 44.114 17.657 43.99 C 17.649 43.052 18.843 43.577 18.943 42.951 C 19.018 42.475 18.287 42.439 18.525 41.689 C 19.132 41.911 19.451 42.398 20.1 42.58 C 20.692 41.286 20.092 38.995 20.175 37.893 C 20.193 37.69 20.276 36.768 20.731 36.929 C 21.134 37.072 20.709 39.385 20.75 40.407 C 20.788 41.35 20.638 42.282 21.018 42.856 C 24.211 42.421 27.455 42.139 30.908 42.046 C 30.149 41.719 29.245 41.408 28.255 40.853 C 27.719 40.553 26.028 39.921 25.874 39.41 C 25.627 38.598 26.523 38.165 26.675 37.469 C 25.062 38.35 24.749 36.626 24.369 35.407 C 24.024 34.301 23.825 33.476 23.742 32.838 C 22.355 32.177 20.87 31.526 19.674 30.658 Z M 35.814 28.918 C 38.038 27.84 38.439 32.949 37.567 34.591 C 37.702 35.083 38.167 35.27 38.355 35.711 L 34.474 42.203 C 35.415 41.616 36.761 42.098 37.849 41.641 C 38.254 41.481 38.546 40.553 38.853 39.813 C 39.697 37.773 40.582 35.201 40.976 33.251 C 41.064 32.806 41.308 31.841 41.253 31.445 C 41.156 30.739 40.198 30.214 39.708 29.758 L 37.309 27.486 C 36.928 28.048 36.112 28.423 35.801 28.881 Z M 14.539 9.204 C 13.48 10.37 13.701 12.553 13.83 14.107 C 15.742 12.903 18.285 14.201 18.262 16.25 C 19.177 16.226 18.603 15.106 18.438 14.388 C 17.899 12.037 19.35 9.484 18.504 7.333 C 16.864 7.457 15.517 8.128 14.541 9.204 Z M 22.117 2.44 C 19.717 3.119 16.646 4.862 15.662 7.014 C 16.425 6.902 16.955 6.52 17.705 6.452 C 17.99 6.433 18.362 6.572 18.69 6.49 C 19.34 6.328 19.89 4.868 20.383 4.324 C 20.863 3.794 21.438 3.567 21.832 3.083 C 22.085 2.961 22.46 2.97 22.473 2.59 C 22.361 2.472 22.248 2.402 22.098 2.402 Z M 34.598 3.077 C 32.11 1.677 27.897 0.621 25.25 1.939 C 23.112 3.004 20.225 4.767 19.241 7.001 C 20.16 9.157 18.969 11.132 18.892 13.32 C 18.851 14.482 19.44 15.5 19.485 16.769 C 19.17 17.289 18.21 17.35 17.542 17.317 C 17.317 16.196 16.924 14.936 15.772 14.808 C 14.141 14.63 12.945 15.982 12.87 17.395 C 12.782 19.056 14.145 21.811 16.08 21.619 C 16.826 21.544 17.01 20.794 17.824 20.804 C 18.264 21.685 17.143 21.961 17.029 22.589 C 16.999 22.752 17.122 23.387 17.194 23.685 C 17.544 25.137 18.328 27.013 19.098 28.118 C 20.077 29.518 21.997 29.73 24.067 29.867 C 24.436 29.072 25.795 29.136 26.682 29.346 C 25.621 28.926 24.633 27.906 23.814 27.002 C 22.876 25.967 21.92 24.855 21.873 23.502 C 23.649 25.965 25.117 28.118 28.345 29.201 C 30.788 30.02 33.643 28.826 35.52 27.506 C 36.3 26.959 36.765 26.089 37.32 25.294 C 39.392 22.294 40.357 18.057 40.147 13.933 C 40.059 12.232 40.063 10.539 39.491 9.396 C 38.895 8.199 36.877 7.127 35.696 8.211 C 35.477 7.048 36.679 6.328 38.089 6.748 C 37.084 5.451 36.026 3.891 34.598 3.085 Z M 39.234 41.449 C 41.178 40.482 44.812 38.847 46.032 41.453 C 46.482 42.413 47.011 44.037 47.243 45.028 C 47.573 46.427 46.868 49.367 45.449 49.837 C 44.18 50.25 42.697 50.227 41.167 49.92 C 40.987 49.77 40.786 49.507 40.646 49.237 C 39.553 49.194 38.531 49.294 37.669 49.744 C 37.751 50.55 37.204 50.681 36.694 50.85 C 36.313 52.355 37.453 54.322 37.181 55.694 C 36.986 56.673 35.783 56.823 34.899 57.007 C 34.871 57.569 34.937 58.004 34.999 58.464 C 34.796 59.208 33.889 59.633 33.03 59.738 C 30.203 60.076 25.91 60.231 23.187 59.251 C 22.428 57.389 21.83 55.126 21.2 52.998 C 18.547 53.28 16.401 51.855 14.379 50.917 C 13.678 50.593 12.692 50.411 12.448 49.856 C 12.195 49.316 12.298 48.281 12.237 47.306 C 12.077 44.813 11.937 42.404 11.299 39.848 C 11.003 38.701 10.487 37.692 10.127 36.586 C 9.796 35.562 9.214 34.299 9.062 33.275 C 8.837 31.762 10.262 31.678 11.174 31.022 C 12.58 30.009 13.686 29.447 15.214 28.532 C 15.664 28.26 17.029 27.594 17.182 27.257 C 17.49 26.631 16.654 25.748 16.432 25.257 C 16.076 24.48 15.894 23.82 15.844 23.054 C 14.563 22.851 13.594 22.09 13.007 21.231 C 12.038 19.81 11.365 17.182 12.205 15.181 C 12.27 15.024 12.58 14.713 12.647 14.473 C 12.741 13.996 12.467 13.363 12.45 12.856 C 12.362 10.256 12.891 8.019 14.64 7.232 C 15.353 4.42 17.893 3.464 20.289 2.054 C 21.185 1.529 22.171 1.191 23.191 0.816 C 26.847 -0.53 32.46 -0.277 35.496 2.02 C 36.782 2.995 38.84 5.048 39.575 6.538 C 41.519 10.466 41.381 17.032 40.021 21.811 C 39.84 22.452 39.572 23.395 39.204 24.165 C 38.945 24.703 38.145 25.778 38.242 26.256 C 38.342 26.747 40.07 28.059 40.441 28.418 C 41.109 29.061 42.376 29.917 42.479 30.727 C 42.592 31.59 42.099 32.775 41.849 33.609 L 39.262 41.446" class="B E"/>
  <path d="M 26.26 22.182 C 26.365 22.041 26.946 21.826 27.76 22.219 C 27.76 22.219 26.798 22.381 26.879 23.982 L 26.478 23.901 C 26.478 23.901 26.065 22.446 26.264 22.18" class="B F"/>
  <path d="M 33.289 35.966 C 33.289 36.209 33.092 36.406 32.848 36.406 C 32.605 36.406 32.408 36.209 32.408 35.966 C 32.408 35.722 32.605 35.525 32.848 35.525 C 33.092 35.525 33.289 35.722 33.289 35.966 M 33.728 38.028 C 33.728 38.272 33.531 38.468 33.287 38.468 C 33.043 38.468 32.847 38.272 32.847 38.028 C 32.847 37.784 33.043 37.587 33.287 37.587 C 33.531 37.587 33.728 37.784 33.728 38.028" fill="#1d1919" class="B"/>
</svg>