<?xml version="1.0" encoding="utf-8"?>
<svg viewBox="13.899 3.948 115.003 60" xmlns="http://www.w3.org/2000/svg">
  <path d="M 28.905 63.948 L 13.899 56.451 L 53.899 56.451 Z M 28.905 23.948 L 13.899 53.948 L 28.905 51.445 Z M 31.396 3.948 L 31.396 51.445 L 53.899 53.948 Z" fill="#466bb0"/>
  <path d="M 69.527 24.381 L 69.527 48.101 L 64.288 48.101 L 64.288 24.381 Z M 77.567 43.802 C 77.784 44.174 78.062 44.451 78.371 44.7 C 78.712 44.947 79.082 45.102 79.515 45.224 C 79.948 45.346 80.381 45.379 80.845 45.379 C 81.199 45.382 81.552 45.34 81.896 45.254 C 82.268 45.16 82.607 45.067 82.885 44.882 C 83.179 44.725 83.433 44.503 83.627 44.232 C 83.815 43.954 83.937 43.614 83.937 43.181 C 83.937 42.47 83.473 41.944 82.515 41.559 C 81.587 41.219 80.27 40.848 78.586 40.508 L 76.575 39.952 C 75.927 39.735 75.338 39.456 74.844 39.116 C 74.342 38.778 73.92 38.336 73.607 37.819 C 73.297 37.295 73.143 36.675 73.143 35.902 C 73.143 34.788 73.36 33.891 73.791 33.18 C 74.223 32.469 74.78 31.911 75.492 31.509 C 76.205 31.106 77.008 30.798 77.862 30.643 C 78.761 30.483 79.671 30.4 80.584 30.396 C 81.488 30.393 82.39 30.486 83.274 30.674 C 84.14 30.861 84.913 31.138 85.624 31.572 C 86.304 32.005 86.893 32.561 87.326 33.244 C 87.79 33.954 88.037 34.82 88.13 35.872 L 83.646 35.872 C 83.584 34.974 83.245 34.356 82.626 34.016 C 81.943 33.682 81.191 33.513 80.431 33.52 C 80.152 33.52 79.874 33.552 79.565 33.583 C 79.256 33.614 78.979 33.675 78.729 33.8 C 78.48 33.925 78.265 34.078 78.081 34.295 C 77.896 34.512 77.802 34.79 77.802 35.131 C 77.802 35.564 77.957 35.904 78.266 36.151 C 78.576 36.429 78.977 36.646 79.473 36.8 C 80.032 36.973 80.6 37.118 81.174 37.232 L 83.122 37.665 L 85.133 38.222 C 85.748 38.428 86.33 38.719 86.864 39.087 C 87.359 39.459 87.792 39.892 88.102 40.459 C 88.411 41.027 88.566 41.665 88.566 42.47 C 88.566 43.614 88.348 44.54 87.886 45.314 C 87.448 46.059 86.845 46.694 86.123 47.17 C 85.381 47.634 84.547 47.974 83.619 48.159 C 82.671 48.346 81.708 48.439 80.742 48.437 C 79.765 48.445 78.789 48.341 77.835 48.128 C 76.874 47.941 76.041 47.604 75.299 47.139 C 74.551 46.674 73.926 46.038 73.474 45.283 C 73.01 44.509 72.732 43.551 72.701 42.406 L 77.185 42.406 C 77.247 42.993 77.34 43.427 77.557 43.798 Z M 100.854 30.907 L 100.854 34.063 L 97.42 34.063 L 97.42 42.555 C 97.42 43.359 97.545 43.884 97.822 44.176 C 98.099 44.468 98.626 44.578 99.443 44.578 L 100.217 44.547 L 100.928 44.454 L 100.928 48.104 C 100.526 48.166 100.092 48.229 99.598 48.229 L 98.176 48.26 C 97.483 48.258 96.791 48.206 96.106 48.105 C 95.457 48.013 94.868 47.827 94.374 47.519 C 93.879 47.241 93.476 46.808 93.199 46.282 C 92.922 45.755 92.766 45.044 92.766 44.179 L 92.766 34.073 L 89.923 34.073 L 89.923 30.917 L 92.766 30.917 L 92.766 25.783 L 97.436 25.783 L 97.436 30.917 Z M 103.224 28.248 L 103.224 24.381 L 107.926 24.381 L 107.926 28.278 L 103.224 28.278 Z M 107.955 30.907 L 107.955 48.07 L 103.253 48.07 L 103.253 30.907 Z M 111.772 35.763 C 112.205 34.649 112.792 33.693 113.565 32.919 C 114.339 32.146 115.267 31.527 116.347 31.094 C 117.427 30.662 118.636 30.446 119.997 30.446 C 121.357 30.446 122.563 30.663 123.676 31.094 C 124.759 31.527 125.717 32.146 126.49 32.919 C 127.263 33.693 127.862 34.65 128.284 35.763 C 128.705 36.876 128.902 38.113 128.902 39.505 C 128.902 40.877 128.685 42.103 128.284 43.216 C 127.851 44.33 127.263 45.256 126.49 46.06 C 125.69 46.859 124.732 47.48 123.676 47.884 C 122.593 48.317 121.356 48.503 119.997 48.503 C 118.637 48.503 117.43 48.286 116.347 47.884 C 115.264 47.452 114.336 46.864 113.565 46.06 C 112.792 45.286 112.193 44.328 111.772 43.216 C 111.35 42.103 111.153 40.866 111.153 39.505 C 111.153 38.144 111.37 36.877 111.772 35.763 Z M 116.07 41.516 C 116.195 42.164 116.442 42.753 116.75 43.278 C 117.058 43.793 117.495 44.22 118.018 44.515 C 118.545 44.825 119.224 44.979 119.998 44.979 C 120.771 44.979 121.451 44.825 122.008 44.515 C 122.54 44.222 122.987 43.796 123.306 43.278 C 123.632 42.734 123.862 42.138 123.985 41.516 C 124.11 40.853 124.172 40.18 124.171 39.505 C 124.172 38.83 124.11 38.157 123.985 37.494 C 123.861 36.846 123.614 36.257 123.306 35.732 C 122.985 35.216 122.539 34.79 122.008 34.495 C 121.453 34.185 120.802 33.999 119.998 33.999 C 119.193 33.999 118.545 34.154 118.018 34.495 C 117.502 34.8 117.067 35.224 116.75 35.732 C 116.442 36.227 116.193 36.815 116.07 37.494 C 115.947 38.158 115.885 38.831 115.884 39.505 C 115.853 40.185 115.946 40.877 116.071 41.516 Z"/>
</svg>