<?xml version="1.0" encoding="utf-8"?>
<svg viewBox="-28.769 411.426 258.598 60" xmlns="http://www.w3.org/2000/svg">
  <defs>
    <clipPath id="clippath0" transform="">
      <path d="M 0 350.1919 L 611.845 350.1919 L 611.845 439.66735 L 0 439.66735 Z" style="fill: none; clip-rule: nonzero;"/>
    </clipPath>
    <clipPath id="clippath1" transform="">
      <path d="M 24.65598 439.6621 C 11.05803 439.6621 0 428.6067 0 415.0088 L 0 374.8111 C 0 361.2132 11.05803 350.1552 24.65598 350.1552 L 65.75979 350.1552 C 79.3525 350.1552 90.41052 361.2132 90.41052 374.8111 L 90.41052 377.9342 C 90.41052 382.4966 86.70963 386.1949 82.14984 386.1949 C 77.58216 386.1949 73.88652 382.4966 73.88652 377.9342 L 73.88652 374.8111 C 73.88652 370.3301 70.24079 366.6792 65.75979 366.6792 L 24.65598 366.6792 C 20.17499 366.6792 16.524 370.3301 16.524 374.8111 L 16.524 414.7041 C 16.524 419.1877 20.17499 422.8361 24.65598 422.8361 L 65.68362 422.8361 C 66.72113 422.8361 67.59054 422.8361 68.39691 422.8334 C 68.39691 422.8334 68.39691 422.8361 68.39428 422.8361 L 72.70455 422.8361 C 82.85377 422.8361 91.58724 414.9326 82.46503 401.2453 C 82.36259 401.1613 82.27329 401.0694 82.17873 400.9801 C 90.4184 408.2847 92.02589 417.7378 88.62706 425.9959 C 85.15205 434.4273 76.36079 439.6621 65.68362 439.6621 L 24.65598 439.6621 Z M 82.11306 400.9223 C 82.13408 400.9433 82.15509 400.959 82.17873 400.9801 C 82.15509 400.959 82.13408 400.9433 82.11306 400.9223" style="fill: none; clip-rule: nonzero;"/>
    </clipPath>
    <clipPath id="clippath2" transform="" style="clip-path: url(#clippath1);">
      <path d="M 0 350.1919 L 611.845 350.1919 L 611.845 439.66735 L 0 439.66735 Z" style="fill: none; clip-rule: nonzero;"/>
    </clipPath>
    <clipPath id="clippath3" transform="">
      <path d="M 0 350.0343 L 612 350.0343 L 612 441.96563 L 0 441.96563 Z" style="fill: none; clip-rule: nonzero;"/>
    </clipPath>
  </defs>
  <g transform="matrix(0.403575, 0, 0, -0.403575, -17.158705, 600.801453)">
    <g transform="">
      <path d="M 0 350.1919 L 611.845 350.1919 L 611.845 439.66735 L 0 439.66735 Z" style="fill: none;"/>
    </g>
    <g style="clip-path: url(#clippath0);">
      <g transform="">
        <path d="M 111.2159 360.0811 C 104.2396 366.8052 100.699 375.3312 100.699 385.8455 C 100.699 396.4518 104.2396 405.1695 111.405 411.9908 C 118.5809 418.9067 127.1857 422.316 137.3191 422.316 C 143.7228 422.316 149.5591 420.8924 155.0094 418.1476 C 160.4543 415.4028 164.6621 411.8043 167.7248 407.2524 L 159.8843 400.242 C 154.048 407.9169 146.6909 411.7045 137.6107 411.7045 C 130.4374 411.7045 124.412 409.2434 119.4424 404.3158 C 114.5622 399.3883 112.0748 393.2368 112.0748 385.8455 C 112.0748 378.4569 114.4703 372.3973 119.3426 367.6615 C 124.2229 362.9231 130.2483 360.5539 137.5135 360.5539 C 146.7802 360.5539 154.4368 364.3467 160.2678 371.9245 L 168.1083 365.0979 C 161.5076 356.1071 150.0346 350.0422 137.0328 350.0422 C 126.7996 350.0422 118.2001 353.357 111.2159 360.0811" style="fill: rgb(44, 46, 53); fill-opacity: 1;"/>
        <path d="M 173.351 350.0422 L 173.351 422.8912 L 183.5842 422.8912 L 183.5842 395.3092 C 186.6416 400.0135 192.6644 403.189 199.9296 403.189 C 205.5742 403.189 210.352 401.3583 214.2735 397.6127 C 218.1924 393.8672 220.102 388.5798 220.102 381.5589 L 220.102 350.0422 L 209.5877 350.0422 L 209.5877 378.583 C 209.5877 388.0965 204.6129 393.3839 197.2505 393.3839 C 189.3181 393.3839 183.8653 387.3296 183.8653 378.491 L 183.8653 350.0422 L 173.351 350.0422" style="fill: rgb(44, 46, 53); fill-opacity: 1;"/>
        <path d="M 235.4125 380.7236 L 265.4399 380.7236 C 264.5784 388.853 258.5529 394.1115 250.8071 394.1115 C 242.8721 394.1115 236.9464 388.7558 235.4125 380.7236 M 275.6679 372.5654 L 235.4125 372.5654 C 236.9464 364.6462 242.5884 359.2774 252.5275 359.2774 C 258.3612 359.2774 265.4399 361.4443 270.0286 364.7433 L 274.4255 357.1104 C 269.1671 353.2493 260.8486 350.0422 252.1493 350.0422 C 232.8358 350.0422 224.5147 363.3329 224.5147 376.7102 C 224.5147 384.3457 226.9049 390.6575 231.7852 395.6533 C 236.6601 400.6465 243.0664 403.1917 250.8071 403.1917 C 258.1694 403.1917 264.2894 400.9301 268.9753 396.3126 C 273.6586 391.6897 276.0488 385.4752 276.0488 377.5612 C 276.0488 376.1455 275.9516 374.4487 275.6679 372.5654" style="fill: rgb(44, 46, 53); fill-opacity: 1;"/>
        <path d="M 288.1391 357.4834 C 283.0723 362.4818 280.493 368.7962 280.493 376.5237 C 280.493 384.3457 283.0723 390.6575 288.2336 395.6533 C 293.3975 400.6491 299.9956 403.1917 308.1197 403.1917 C 318.4449 403.1917 327.7247 398.012 331.838 389.6173 L 323.1334 384.8159 C 319.9788 390.1847 314.3369 393.6728 308.2169 393.6728 C 303.3419 393.6728 299.2286 392.0706 295.9821 388.7716 C 292.7277 385.4752 291.1071 381.4197 291.1071 376.5237 C 291.1071 371.717 292.7277 367.7561 295.8849 364.457 C 299.0421 361.1607 303.0529 359.5558 307.8334 359.5558 C 313.956 359.5558 320.1732 363.233 322.8471 368.2289 L 331.5464 363.233 C 327.3359 355.3191 318.0693 350.0422 307.7414 350.0422 C 299.8038 350.0422 293.2058 352.4928 288.1391 357.4834" style="fill: rgb(44, 46, 53); fill-opacity: 1;"/>
        <path d="M 368.8206 350.0422 L 350.2715 373.5871 L 345.7826 369.4555 L 345.7826 350.0422 L 335.2604 350.0422 L 335.2604 422.8912 L 345.7826 422.8912 L 345.7826 381.8531 L 367.4784 401.8416 L 381.3495 401.8416 L 357.6339 380.3139 L 382.3976 350.0422 L 368.8206 350.0422" style="fill: rgb(44, 46, 53); fill-opacity: 1;"/>
        <path d="M 461.3508 397.3159 C 465.1752 393.3708 467.0873 387.8812 467.0873 381.0441 L 467.0873 350.0396 L 456.5651 350.0396 L 456.5651 379.3105 C 456.5651 388.459 451.9738 393.4706 444.8084 393.4706 C 437.1597 393.4706 431.8986 387.784 431.8986 379.0216 L 431.8986 350.0396 L 421.3817 350.0396 L 421.3817 379.1162 C 421.3817 388.0703 416.7904 393.4706 409.5226 393.4706 C 401.8791 393.4706 396.5235 387.6842 396.5235 378.8325 L 396.5235 350.0396 L 386.0013 350.0396 L 386.0013 401.9414 L 396.3238 401.9414 L 396.3238 394.4267 C 399.3944 399.9136 405.1256 403.3834 411.9128 403.3834 C 418.7078 403.2862 425.0196 399.9136 427.7827 393.8541 C 431.3208 399.6273 438.4993 403.3834 446.4317 403.3834 C 452.6462 403.3834 457.6263 401.3635 461.3508 397.3159" style="fill: rgb(44, 46, 53); fill-opacity: 1;"/>
        <path d="M 510.4842 363.8923 C 513.6387 367.2413 515.1727 371.3493 515.1727 376.2321 C 515.1727 381.0126 513.6387 385.1206 510.4842 388.4721 C 507.3217 391.8132 503.4028 393.5389 498.5252 393.5389 C 493.6529 393.5389 489.6394 391.8132 486.5794 388.4721 C 483.5194 385.1206 481.9828 381.0126 481.9828 376.135 C 481.9828 371.26 483.5194 367.1467 486.5794 363.7978 C 489.6394 360.4541 493.6529 358.8256 498.5252 358.8256 C 503.4028 358.8256 507.3217 360.546 510.4842 363.8923 M 514.6894 401.9677 L 524.8255 401.9677 L 524.8255 350.1263 L 514.6894 350.1263 L 514.6894 358.2215 C 510.0009 352.7713 504.0752 350.0422 497.1016 350.0422 C 489.734 350.0422 483.5194 352.5821 478.6418 357.7566 C 473.7615 362.9231 471.3792 369.3294 471.3792 376.9439 C 471.3792 384.5664 473.7615 390.7757 478.6418 395.761 C 483.5194 400.7463 489.734 403.1917 497.1016 403.1917 C 504.0752 403.1917 510.0009 400.4652 514.6894 394.9126 L 514.6894 401.9677" style="fill: rgb(44, 46, 53); fill-opacity: 1;"/>
        <path d="M 531.3106 350.0422 L 531.3106 401.9414 L 541.3468 401.9414 L 541.3468 394.5238 C 544.4068 400.3996 549.2844 403.2862 555.9744 403.2862 C 558.1755 403.2862 560.1849 402.9973 562.0997 402.4221 L 561.141 392.1205 C 559.326 392.7929 557.4112 393.0845 555.4964 393.0845 C 547.4668 393.0845 541.8275 387.5003 541.8275 376.6182 L 541.8275 350.0422 L 531.3106 350.0422" style="fill: rgb(44, 46, 53); fill-opacity: 1;"/>
        <path d="M 611.845 350.0422 L 599.605 350.0422 L 588.0427 368.7253 L 576.1836 350.0422 L 563.6625 350.0422 L 581.4394 376.8179 L 565.4749 401.9493 L 577.7122 401.9493 L 588.2292 384.4245 L 599.1296 401.9493 L 611.3644 401.9493 L 594.5409 376.2348 L 611.845 350.0422" style="fill: rgb(44, 46, 53); fill-opacity: 1;"/>
        <path d="M 24.65598 439.6674 C 11.06328 439.6674 0 428.6041 0 415.0088 L 0 374.8111 C 0 361.2132 11.06328 350.1552 24.65598 350.1552 L 65.75979 350.1552 C 79.3525 350.1552 90.41052 361.2132 90.41052 374.8111 L 90.41052 377.9342 C 90.41052 382.4966 86.71488 386.1975 82.15509 386.1975 C 77.58742 386.1975 73.88652 382.4966 73.88652 377.9342 L 73.88652 374.8111 C 73.88652 370.3301 70.23816 366.6792 65.75979 366.6792 L 24.65598 366.6792 C 20.16973 366.6792 16.524 370.3301 16.524 374.8111 L 16.524 414.7067 C 16.524 419.1877 20.16973 422.8334 24.65598 422.8334 L 65.68362 422.8334 C 66.72113 422.8334 67.59579 422.8334 68.39691 422.8282 C 68.39691 422.8334 68.39428 422.8334 68.39166 422.8334 L 72.70192 422.8334 C 82.85377 422.8334 91.58724 414.9326 82.45978 401.248 C 82.34421 401.1403 82.23652 401.03 82.11306 400.9196 C 90.41052 408.2321 92.03377 417.7194 88.62706 425.9933 C 85.15205 434.4247 76.36079 439.6674 65.68362 439.6674 L 24.65598 439.6674" style="fill: rgb(83, 191, 104); fill-opacity: 1;"/>
      </g>
    </g>
    <g transform="">
      <path d="M 24.65598 439.6621 C 11.05803 439.6621 0 428.6067 0 415.0088 L 0 374.8111 C 0 361.2132 11.05803 350.1552 24.65598 350.1552 L 65.75979 350.1552 C 79.3525 350.1552 90.41052 361.2132 90.41052 374.8111 L 90.41052 377.9342 C 90.41052 382.4966 86.70963 386.1949 82.14984 386.1949 C 77.58216 386.1949 73.88652 382.4966 73.88652 377.9342 L 73.88652 374.8111 C 73.88652 370.3301 70.24079 366.6792 65.75979 366.6792 L 24.65598 366.6792 C 20.17499 366.6792 16.524 370.3301 16.524 374.8111 L 16.524 414.7041 C 16.524 419.1877 20.17499 422.8361 24.65598 422.8361 L 65.68362 422.8361 C 66.72113 422.8361 67.59054 422.8361 68.39691 422.8334 C 68.39691 422.8334 68.39691 422.8361 68.39428 422.8361 L 72.70455 422.8361 C 82.85377 422.8361 91.58724 414.9326 82.46503 401.2453 C 82.36259 401.1613 82.27329 401.0694 82.17873 400.9801 C 90.4184 408.2847 92.02589 417.7378 88.62706 425.9959 C 85.15205 434.4273 76.36079 439.6621 65.68362 439.6621 L 24.65598 439.6621 Z M 82.11306 400.9223 C 82.13408 400.9433 82.15509 400.959 82.17873 400.9801 C 82.15509 400.959 82.13408 400.9433 82.11306 400.9223" style="fill: none;"/>
    </g>
    <g style="clip-path: url(#clippath1);">
      <g transform="">
        <path d="M 0 350.1919 L 611.845 350.1919 L 611.845 439.66735 L 0 439.66735 Z" style="fill: none;"/>
      </g>
    </g>
    <g style="clip-path: url(#clippath2);">
      <g transform="">
        <path d="M -28.76925 360.6222 L 10.7691 469.2456 L 120.803 429.1951 L 81.2673 320.5743 L -28.76925 360.6222" style="fill: rgb(83, 191, 104); fill-opacity: 1;"/>
      </g>
    </g>
    <g transform="">
      <path d="M 0 350.0343 L 612 350.0343 L 612 441.96563 L 0 441.96563 Z" style="fill: none;"/>
    </g>
    <g style="clip-path: url(#clippath3);">
      <g transform="">
        <path d="M 72.3841 419.6395 C 73.11167 417.8692 73.67902 415.4264 70.8633 413.0519 L 47.28422 395.7373 L 40.16086 404.9357 C 37.36615 408.5447 32.17597 409.2066 28.56438 406.4093 C 24.95542 403.6145 24.29876 398.427 27.09085 394.8233 L 39.14961 379.2501 C 41.88917 375.7094 46.95852 375.0003 50.56748 377.6505 L 77.89736 397.6285 C 78.22831 397.8675 81.82939 400.636 82.11832 400.9196 C 82.23652 401.03 82.34421 401.1376 82.46503 401.248 C 91.5925 414.9273 82.85114 422.8361 72.70192 422.8361 L 68.39428 422.8361 C 70.49032 422.3186 71.75897 421.1655 72.3841 419.6395" style="fill: rgb(83, 191, 104); fill-opacity: 1;"/>
      </g>
    </g>
  </g>
</svg>