<svg xmlns="http://www.w3.org/2000/svg" width="181" height="38" viewBox="0 0 181 38">
  <g fill="none">
    <path fill="#3ECF8E" d="M18.802616,17.1835443 L32.6258228,6.6443038 L32.6258228,6.6443038 L31.4802532,21.6894515 C31.5214929,24.197744 30.7734573,26.6555751 29.3418565,28.7156118 L18.802616,20.6966245 C18.2595327,20.2756823 17.9416996,19.6272029 17.9416996,18.9400844 C17.9416996,18.2529659 18.2595327,17.6044865 18.802616,17.1835443 Z"/>
    <path fill="#272E41" d="M9.02708861 20.6966245C8.48400524 20.2756823 8.16617214 19.6272029 8.16617214 18.9400844 8.16617214 18.2529659 8.48400524 17.6044865 9.02708861 17.1835443L28.8836287 1.98565401C24.9027312.732194346 20.7609399.0633336438 16.5878481 0 12.2920697.0906502281 8.02798567.758518815 3.91021097 1.98565401 1.89887466 2.60879032.590613933 4.5457783.76371308 6.6443038L1.9092827 21.6894515C1.92455696 31.0831224 11.4556962 35.8945148 15.2131646 37.6510549 16.1428377 38.0329802 17.1856012 38.0329802 18.1152743 37.6510549 20.7482629 36.5705801 23.176431 35.0465172 25.2941772 33.1451477L9.02708861 20.6966245zM48.2055696 24.5915612C49.8104827 26.0938606 51.8914517 26.9857045 54.0861603 27.1118143 56.4536709 27.1118143 57.3701266 26.1189873 57.3701266 24.7443038 57.3701266 23.2168776 55.995443 22.7586498 53.8570464 21.8421941L50.7258228 20.4675105C48.2055696 19.4746835 45.8380591 17.3362869 45.8380591 13.8232068 45.8380591 9.92827004 49.3511392 6.6443038 54.3916456 6.6443038 57.2854989 6.69199743 60.0597158 7.80712383 62.181519 9.77552743L59.4321519 13.2886076C58.019771 12.0842388 56.245969 11.3854684 54.3916456 11.3029536 52.6351055 11.3029536 51.2604219 12.0666667 51.2604219 13.4413502 51.2604219 14.9687764 52.7878481 15.4270042 55.002616 16.3434599L58.1338397 17.4890295C61.0359494 18.6345992 62.7924895 20.6202532 62.7924895 24.1333333 62.7924895 28.02827 59.5085232 31.5413505 53.8570464 31.5413505 50.5415451 31.5420599 47.3488516 30.2868129 44.9216034 28.02827L48.2055696 24.5915612zM66.3819409 5.49873418L71.7890295 5.49873418 71.7890295 11.9139241 71.5599156 15.1978903C72.9345992 14.0523207 74.6911392 12.6776371 77.2113924 12.6776371 81.1063291 12.6776371 82.8628692 15.4270042 82.8628692 20.085654L82.8628692 31.3886076 77.4405063 31.3886076 77.4405063 20.6966245C77.4405063 17.9472574 76.6767932 17.1835443 75.0729958 17.1835443 73.6983122 17.1835443 72.9345992 17.7945148 71.7890295 18.9400844L71.7890295 31.3886076 66.3666667 31.3886076 66.3666667 5.49873418 66.3819409 5.49873418zM85.8566245 7.48438819C85.8566245 5.7278481 87.231308 4.7350211 88.9878481 4.7350211 90.7443882 4.7350211 92.1190717 5.88059072 92.1190717 7.48438819 92.004137 9.12900001 90.6364712 10.4044215 88.9878481 10.4044215 87.339225 10.4044215 85.9715592 9.12900001 85.8566245 7.48438819zM86.238481 13.135865L91.6455696 13.135865 91.6455696 31.4649789 86.2232068 31.4649789 86.238481 13.135865zM118.467173 31.235865C117.139958 31.683968 115.743249 31.8908878 114.343122 31.8468354 109.837215 31.8468354 108.080675 28.9447257 108.080675 24.8206751L108.080675 17.4126582 102.429198 17.4126582 102.429198 31.4649789 96.9915612 31.4649789 96.9915612 17.4126582 94.471308 17.4126582 94.471308 13.2886076 96.9915612 13.0594937 96.9915612 12.0666667C96.9915612 8.17172996 98.7481013 5.04050633 103.788608 5.04050633 105.057871 5.07425585 106.316713 5.27978117 107.530802 5.65147679L106.537975 9.5464135C105.901893 9.30972421 105.23082 9.1806717 104.552321 9.16455696 103.177637 9.16455696 102.413924 9.92827004 102.413924 11.6848101L102.413924 12.8303797 108.447257 12.8303797 109.058228 7.94261603 113.564135 7.94261603 113.564135 12.8303797 118.070042 12.8303797 118.070042 17.107173 113.564135 17.107173 113.564135 24.5151899C113.564135 26.6535865 114.556962 27.4172996 115.931646 27.4172996 116.530748 27.3634769 117.120808 27.235203 117.688186 27.035443L118.467173 31.235865z"/>
    <polygon fill="#3ECF8E" points="121.98 7.255 127.403 7.255 127.403 26.73 136.949 26.73 136.949 31.389 121.904 31.389"/>
    <path fill="#3ECF8E" d="M147.335527 12.5248945C152.605148 12.5248945 155.125401 16.4198312 155.125401 21.3075949 155.125401 22.3004219 154.896287 23.064135 154.896287 23.6751055L143.97519 23.6751055C144.357046 26.4244726 146.3427 27.5700422 148.63384 27.5700422 150.011729 27.5465923 151.3576 27.150748 152.528776 26.4244726L154.285316 29.7084388C152.40929 31.0475367 150.174407 31.7924977 147.870127 31.8468354 142.600506 31.8468354 138.476456 28.3337553 138.476456 22.3004219 138.476456 16.2670886 142.814346 12.5248945 147.335527 12.5248945zM150.39038 20.3147679C150.39038 18.1763713 149.397553 16.8016878 147.259156 16.8016878 145.502616 16.8016878 144.127932 17.9472574 143.746076 20.3147679L150.39038 20.3147679zM181 31.235865C179.672785 31.683968 178.276076 31.8908878 176.875949 31.8468354 172.370042 31.8468354 170.613502 28.9447257 170.613502 24.8206751L170.613502 17.4126582 165.038397 17.4126582 165.038397 31.4649789 159.616034 31.4649789 159.616034 17.4126582 157.095781 17.4126582 157.095781 13.2886076 159.616034 13.0594937 159.616034 12.0666667C159.616034 8.17172996 161.372574 5.04050633 166.41308 5.04050633 167.682343 5.07425585 168.941186 5.27978117 170.155274 5.65147679L169.162447 9.5464135C168.526366 9.30972421 167.855293 9.1806717 167.176793 9.16455696 165.80211 9.16455696 165.038397 9.92827004 165.038397 11.6848101L165.038397 12.8303797 171.07173 12.8303797 171.6827 7.94261603 176.188608 7.94261603 176.188608 12.8303797 180.694515 12.8303797 180.694515 17.107173 176.188608 17.107173 176.188608 24.5151899C176.188608 26.6535865 177.181435 27.4172996 178.556118 27.4172996 179.155221 27.3634769 179.745281 27.235203 180.312658 27.035443L181 31.235865z"/>
  </g>
</svg>
