<?xml version="1.0" encoding="utf-8"?>
<svg viewBox="0 0 60 60" xmlns="http://www.w3.org/2000/svg" xmlns:xlink="http://www.w3.org/1999/xlink">
  <linearGradient id="b" x1="98.031%" x2="58.888%" y1=".161%" y2="40.766%" xlink:href="#a"/>
  <linearGradient id="a">
    <stop offset="0.18" stop-color="#0052cc"/>
    <stop offset="1" stop-color="#2684ff"/>
  </linearGradient>
  <linearGradient id="c" x1="100.665%" x2="55.402%" y1=".455%" y2="44.727%" xlink:href="#a"/>
  <path d="M 57.494 0 L 28.601 0 C 28.601 7.203 34.44 13.043 41.643 13.043 L 46.966 13.043 L 46.966 18.182 C 46.97 25.378 52.803 31.211 60 31.216 L 60 2.506 C 60 1.123 58.878 0 57.494 0 Z" fill="#2684ff"/>
  <path d="M 43.197 14.396 L 14.305 14.396 C 14.309 21.593 20.142 27.426 27.339 27.431 L 32.661 27.431 L 32.661 32.586 C 32.67 39.783 38.507 45.612 45.704 45.612 L 45.704 16.903 C 45.704 15.519 44.582 14.397 43.197 14.397 Z" fill="url(#b)"/>
  <path d="M 28.893 28.784 L 0 28.784 C 0 35.988 5.84 41.827 13.043 41.827 L 18.382 41.827 L 18.382 46.966 C 18.387 54.156 24.209 59.986 31.4 60 L 31.4 31.291 C 31.4 29.907 30.277 28.784 28.893 28.784 Z" fill="url(#c)"/>
</svg>