<?xml version="1.0" encoding="utf-8"?>
<svg viewBox="0 36.847 167.108 60" xmlns="http://www.w3.org/2000/svg">
  <defs>
    <clipPath id="clippath0" transform="">
      <path d="M 0 96.847 L 269.733 96.847 L 269.733 0 L 0 0 Z" style="fill: none; clip-rule: nonzero;"/>
    </clipPath>
    <clipPath id="clippath1" transform="">
      <path d="M 228.335 31.46 L 228.335 30.975 C 228.335 30.078 229.082 29.443 230.017 29.443 L 230.017 29.443 C 230.989 29.443 231.736 30.078 231.736 30.975 L 231.736 30.975 L 231.736 31.46 C 231.736 32.396 230.989 32.992 230.017 32.992 L 230.017 32.992 C 229.082 32.992 228.335 32.396 228.335 31.46 M 130.105 25.484 L 130.105 25.408 C 130.105 21.11 132.871 19.167 138.885 17.861 L 138.885 17.861 C 144.378 16.702 145.686 15.319 145.686 12.892 L 145.686 12.892 L 145.686 12.816 C 145.686 10.238 143.369 8.37 139.856 8.37 L 139.856 8.37 C 136.533 8.37 134.066 9.378 131.599 11.471 L 131.599 11.471 C 131.413 11.658 131.076 11.807 130.702 11.807 L 130.702 11.807 C 129.918 11.807 129.283 11.172 129.283 10.35 L 129.283 10.35 C 129.283 9.864 129.507 9.454 129.843 9.23 L 129.843 9.23 C 132.757 6.912 135.932 5.717 139.745 5.717 L 139.745 5.717 C 144.94 5.717 148.675 8.631 148.675 13.115 L 148.675 13.115 L 148.675 13.189 C 148.675 17.187 145.984 19.318 140.156 20.587 L 140.156 20.587 C 134.401 21.82 133.057 23.203 133.057 25.669 L 133.057 25.669 L 133.057 25.744 C 133.057 28.098 135.224 29.965 138.623 29.965 L 138.623 29.965 C 141.052 29.965 143.182 29.292 145.387 27.688 L 145.387 27.688 C 145.649 27.499 145.911 27.427 146.246 27.427 L 146.246 27.427 C 147.031 27.427 147.666 28.06 147.666 28.845 L 147.666 28.845 C 147.666 29.406 147.33 29.817 147.031 30.041 L 147.031 30.041 C 144.64 31.758 142.136 32.619 138.698 32.619 L 138.698 32.619 C 133.729 32.619 130.105 29.594 130.105 25.484 M 237.676 29.965 L 237.676 25.408 L 236.107 25.408 C 235.434 25.408 234.836 24.847 234.836 24.137 L 234.836 24.137 C 234.836 23.465 235.434 22.867 236.107 22.867 L 236.107 22.867 L 237.676 22.867 L 237.676 11.21 C 237.676 7.286 240.029 5.754 243.13 5.754 L 243.13 5.754 C 244.252 5.754 245.148 5.941 245.97 6.277 L 245.97 6.277 C 246.456 6.464 246.794 6.875 246.794 7.398 L 246.794 7.398 C 246.794 8.07 246.233 8.631 245.56 8.631 L 245.56 8.631 C 245.335 8.631 244.812 8.37 243.803 8.37 L 243.803 8.37 C 241.861 8.37 240.553 9.23 240.553 11.583 L 240.553 11.583 L 240.553 22.867 L 245.56 22.867 C 246.269 22.867 246.867 23.428 246.867 24.137 L 246.867 24.137 C 246.867 24.81 246.269 25.408 245.56 25.408 L 245.56 25.408 L 240.553 25.408 L 240.553 29.965 C 240.553 30.75 239.88 31.424 239.095 31.424 L 239.095 31.424 C 238.273 31.424 237.676 30.75 237.676 29.965 M 172.139 15.73 L 172.139 15.656 C 172.139 10.238 176.399 5.642 182.041 5.642 L 182.041 5.642 C 185.291 5.642 187.496 6.912 189.328 8.743 L 189.328 8.743 C 189.551 8.969 189.7 9.303 189.7 9.641 L 189.7 9.641 C 189.7 10.312 189.103 10.948 188.393 10.948 L 188.393 10.948 C 188.019 10.948 187.758 10.761 187.572 10.574 L 187.572 10.574 C 186.152 9.23 184.395 8.221 182.191 8.221 L 182.191 8.221 C 178.155 8.221 175.09 11.544 175.09 15.73 L 175.09 15.73 L 175.09 15.806 C 175.09 19.952 178.08 23.278 182.003 23.278 L 182.003 23.278 C 184.32 23.278 185.89 22.232 187.273 20.961 L 187.273 20.961 C 187.496 20.775 187.833 20.624 188.206 20.624 L 188.206 20.624 C 188.953 20.624 189.589 21.224 189.589 22.008 L 189.589 22.008 C 189.589 22.456 189.365 22.829 189.139 23.018 L 189.139 23.018 C 187.421 24.584 185.254 25.818 182.041 25.818 L 182.041 25.818 C 176.399 25.818 172.139 21.185 172.139 15.73 M 151.514 15.768 L 151.514 15.693 C 151.514 9.715 155.848 5.642 161.154 5.642 L 161.154 5.642 C 164.443 5.642 166.611 6.799 168.44 8.556 L 168.44 8.556 C 168.739 8.818 168.889 9.154 168.889 9.49 L 168.889 9.49 C 168.889 10.163 168.329 10.723 167.62 10.723 L 167.62 10.723 C 167.282 10.723 167.019 10.574 166.796 10.388 L 166.796 10.388 C 165.377 9.079 163.62 8.145 161.23 8.145 L 161.23 8.145 C 157.792 8.145 154.84 10.499 154.429 14.684 L 154.429 14.684 L 168.404 14.684 C 169.114 14.684 169.748 15.244 169.748 16.029 L 169.748 16.029 C 169.748 21.148 166.497 25.818 160.781 25.818 L 160.781 25.818 C 155.439 25.818 151.514 21.335 151.514 15.768 M 160.706 23.39 C 164.554 23.39 166.572 20.327 166.871 16.814 L 166.871 16.814 L 154.429 16.814 C 154.803 20.587 157.342 23.39 160.706 23.39 M 216.827 20.514 L 216.827 24.137 C 216.827 24.96 216.193 25.594 215.37 25.594 L 215.37 25.594 C 214.585 25.594 213.951 24.922 213.951 24.137 L 213.951 24.137 L 213.951 7.361 C 213.951 6.538 214.585 5.903 215.407 5.903 L 215.407 5.903 C 216.229 5.903 216.827 6.576 216.827 7.361 L 216.827 7.361 L 216.827 13.936 C 216.827 19.504 219.891 22.307 223.628 22.755 L 223.628 22.755 C 224.374 22.867 224.897 23.428 224.897 24.212 L 224.897 24.212 C 224.897 25.033 224.337 25.669 223.476 25.669 L 223.476 25.669 C 221.049 25.669 218.246 23.728 216.827 20.514 M 265.175 24.512 L 259.197 9.303 L 252.472 24.475 C 252.21 25.109 251.798 25.594 251.014 25.594 L 251.014 25.594 C 250.193 25.594 249.557 24.96 249.557 24.175 L 249.557 24.175 C 249.557 23.913 249.632 23.652 249.745 23.39 L 249.745 23.39 L 257.815 6.277 L 257.665 5.98 C 256.619 3.623 255.573 2.541 253.779 2.541 L 253.779 2.541 C 252.806 2.541 252.247 2.69 251.687 2.876 L 251.687 2.876 C 251.463 2.952 251.24 3.027 250.977 3.027 L 250.977 3.027 C 250.341 3.027 249.745 2.504 249.745 1.794 L 249.745 1.794 C 249.745 1.12 250.193 0.747 250.64 0.562 L 250.64 0.562 C 251.612 0.224 252.546 0 253.816 0 L 253.816 0 C 256.731 0 258.599 1.457 260.281 5.455 L 260.281 5.455 L 267.828 23.465 C 267.903 23.689 267.978 23.951 267.978 24.175 L 267.978 24.175 C 267.978 24.96 267.342 25.594 266.557 25.594 L 266.557 25.594 C 265.81 25.594 265.399 25.109 265.175 24.512 M 228.596 24.137 L 228.596 7.361 C 228.596 6.538 229.233 5.903 230.053 5.903 L 230.053 5.903 C 230.876 5.903 231.474 6.538 231.474 7.361 L 231.474 7.361 L 231.474 24.137 C 231.474 24.96 230.838 25.594 230.017 25.594 L 230.017 25.594 C 229.233 25.594 228.596 24.922 228.596 24.137 M 206.887 24.137 L 206.887 14.349 C 206.887 10.723 204.385 8.294 201.097 8.294 L 201.097 8.294 C 197.698 8.294 195.754 10.536 195.754 14.124 L 195.754 14.124 L 195.754 24.137 C 195.754 24.96 195.081 25.594 194.296 25.594 L 194.296 25.594 C 193.474 25.594 192.876 24.96 192.876 24.137 L 192.876 24.137 L 192.876 13.414 C 192.876 8.818 195.603 5.679 200.274 5.679 L 200.274 5.679 C 203.6 5.679 205.582 7.361 206.887 9.454 L 206.887 9.454 L 206.887 7.361 C 206.887 6.538 207.524 5.903 208.308 5.903 L 208.308 5.903 C 209.13 5.903 209.728 6.576 209.728 7.361 L 209.728 7.361 L 209.728 24.137 C 209.728 24.96 209.092 25.594 208.308 25.594 L 208.308 25.594 C 207.486 25.594 206.887 24.96 206.887 24.137" style="fill: none; clip-rule: nonzero;"/>
    </clipPath>
    <linearGradient id="shading0" gradientUnits="userSpaceOnUse" x1="0" y1="0" x2="1" y2="0">
      <stop offset="0" style="stop-color: rgb(111, 137, 199);"/>
      <stop offset="0.1" style="stop-color: rgb(111, 137, 199);"/>
      <stop offset="0.2" style="stop-color: rgb(108, 146, 203);"/>
      <stop offset="0.3" style="stop-color: rgb(104, 157, 208);"/>
      <stop offset="0.4" style="stop-color: rgb(100, 167, 213);"/>
      <stop offset="0.5" style="stop-color: rgb(95, 177, 217);"/>
      <stop offset="0.6" style="stop-color: rgb(91, 187, 222);"/>
      <stop offset="0.7" style="stop-color: rgb(87, 197, 227);"/>
      <stop offset="0.8" style="stop-color: rgb(83, 206, 232);"/>
      <stop offset="0.9" style="stop-color: rgb(82, 208, 233);"/>
      <stop offset="1" style="stop-color: rgb(82, 208, 233);"/>
    </linearGradient>
  </defs>
  <g transform="matrix(0.619531, 0, 0, -0.619531, 0, 96.847504)">
    <g transform="">
      <path d="M 0 96.847 L 269.733 96.847 L 269.733 0 L 0 0 Z" style="fill: none;"/>
    </g>
    <g style="clip-path: url(#clippath0);">
      <g transform="translate(148.631 51.4773)">
        <path d="M 0 0 L 0 42.638 C 0 44.055 -1.146 45.269 -2.564 45.269 C -4.048 45.269 -5.195 44.055 -5.195 42.638 L -5.195 7.016 L -33.868 43.583 C -34.61 44.527 -35.352 45.134 -36.566 45.134 L -37.308 45.134 C -38.725 45.134 -39.939 43.92 -39.939 42.503 L -39.939 0 C -39.939 -1.417 -38.793 -2.631 -37.376 -2.631 C -35.892 -2.631 -34.745 -1.417 -34.745 0 L -34.745 36.566 L -5.465 -0.877 C -4.655 -1.822 -3.846 -2.496 -2.699 -2.496 L -2.429 -2.496 C -1.012 -2.496 0 -1.417 0 0" style="fill: rgb(62, 63, 63); fill-opacity: 1;"/>
      </g>
    </g>
    <g style="clip-path: url(#clippath0);">
      <g transform="translate(89.3868 72.9983)">
        <path d="M 0 0 C 0 1.282 -1.08 2.429 -2.429 2.429 L -16.733 2.429 L -17.793 2.429 L -32.097 2.429 C -33.447 2.429 -34.526 1.282 -34.526 0 C -34.526 -1.349 -33.447 -2.429 -32.097 -2.429 L -17.793 -2.429 L -16.733 -2.429 L -2.429 -2.429 C -1.08 -2.429 0 -1.349 0 0 M -0.337 20.982 C -0.337 22.331 -1.417 23.41 -2.766 23.41 L -16.733 23.41 L -17.793 23.41 L -31.76 23.41 C -33.109 23.41 -34.189 22.331 -34.189 20.982 C -34.189 19.632 -33.109 18.553 -31.76 18.553 L -17.793 18.553 L -16.733 18.553 L -2.766 18.553 C -1.417 18.553 -0.337 19.632 -0.337 20.982 M -34.526 -21.386 C -34.526 -22.736 -33.447 -23.815 -32.098 -23.815 L -17.793 -23.815 L -16.733 -23.815 L -2.429 -23.815 C -1.08 -23.815 0 -22.736 0 -21.386 C 0 -20.037 -1.08 -18.958 -2.429 -18.958 L -16.733 -18.958 L -17.793 -18.958 L -32.098 -18.958 C -33.447 -18.958 -34.526 -20.037 -34.526 -21.386" style="fill: rgb(62, 63, 63); fill-opacity: 1;"/>
      </g>
    </g>
    <g style="clip-path: url(#clippath0);">
      <g transform="translate(37.983 51.5446)">
        <path d="M 0 0 C 0 0.81 -0.27 1.349 -0.742 1.957 L -18.688 24.085 L -1.957 40.682 C -1.417 41.221 -1.079 41.828 -1.079 42.571 C -1.079 43.92 -2.226 45.202 -3.643 45.202 C -4.52 45.202 -5.127 44.797 -5.735 44.257 L -32.653 16.664 L -32.653 42.503 C -32.653 43.987 -33.868 45.202 -35.352 45.202 C -36.768 45.202 -37.983 43.987 -37.983 42.503 L -37.983 0 C -37.983 -1.484 -36.768 -2.699 -35.352 -2.699 C -33.868 -2.699 -32.653 -1.484 -32.653 0 L -32.653 10.255 L -22.466 20.442 L -4.858 -1.484 C -4.385 -2.159 -3.711 -2.699 -2.699 -2.699 C -1.214 -2.699 0 -1.417 0 0" style="fill: rgb(62, 63, 63); fill-opacity: 1;"/>
      </g>
    </g>
    <g style="clip-path: url(#clippath0);">
      <g transform="translate(269.7335 51.3083)">
        <path d="M 0 0 C 0 0.405 -0.135 0.877 -0.337 1.349 L -19.497 43.178 C -20.105 44.662 -21.185 45.539 -22.803 45.539 L -23.073 45.539 C -24.76 45.539 -25.772 44.662 -26.446 43.178 L -45.607 1.282 C -45.876 0.742 -45.944 0.27 -45.944 -0.135 C -45.944 -1.484 -44.864 -2.564 -43.515 -2.564 C -42.301 -2.564 -41.424 -1.889 -40.951 -0.742 L -36.027 10.255 L -10.12 10.255 L -5.195 -0.607 C -4.723 -1.687 -3.846 -2.564 -2.564 -2.564 C -1.147 -2.564 0 -1.417 0 0 M -12.211 15.112 L -33.936 15.112 L -23.073 39.265 Z" style="fill: rgb(62, 63, 63); fill-opacity: 1;"/>
      </g>
    </g>
    <g style="clip-path: url(#clippath0);">
      <g transform="translate(209.1817 51.4773)">
        <path d="M 0 0 L 0 42.638 C 0 44.055 -1.146 45.269 -2.563 45.269 C -4.048 45.269 -5.194 44.055 -5.194 42.638 L -5.194 7.016 L -33.867 43.583 C -34.609 44.527 -35.352 45.134 -36.565 45.134 L -37.308 45.134 C -38.725 45.134 -39.938 43.92 -39.938 42.503 L -39.938 0 C -39.938 -1.417 -38.793 -2.631 -37.376 -2.631 C -35.892 -2.631 -34.744 -1.417 -34.744 0 L -34.744 36.566 L -5.465 -0.877 C -4.654 -1.822 -3.846 -2.496 -2.698 -2.496 L -2.429 -2.496 C -1.012 -2.496 0 -1.417 0 0" style="fill: rgb(62, 63, 63); fill-opacity: 1;"/>
      </g>
    </g>
    <g transform="">
      <path d="M 228.335 31.46 L 228.335 30.975 C 228.335 30.078 229.082 29.443 230.017 29.443 L 230.017 29.443 C 230.989 29.443 231.736 30.078 231.736 30.975 L 231.736 30.975 L 231.736 31.46 C 231.736 32.396 230.989 32.992 230.017 32.992 L 230.017 32.992 C 229.082 32.992 228.335 32.396 228.335 31.46 M 130.105 25.484 L 130.105 25.408 C 130.105 21.11 132.871 19.167 138.885 17.861 L 138.885 17.861 C 144.378 16.702 145.686 15.319 145.686 12.892 L 145.686 12.892 L 145.686 12.816 C 145.686 10.238 143.369 8.37 139.856 8.37 L 139.856 8.37 C 136.533 8.37 134.066 9.378 131.599 11.471 L 131.599 11.471 C 131.413 11.658 131.076 11.807 130.702 11.807 L 130.702 11.807 C 129.918 11.807 129.283 11.172 129.283 10.35 L 129.283 10.35 C 129.283 9.864 129.507 9.454 129.843 9.23 L 129.843 9.23 C 132.757 6.912 135.932 5.717 139.745 5.717 L 139.745 5.717 C 144.94 5.717 148.675 8.631 148.675 13.115 L 148.675 13.115 L 148.675 13.189 C 148.675 17.187 145.984 19.318 140.156 20.587 L 140.156 20.587 C 134.401 21.82 133.057 23.203 133.057 25.669 L 133.057 25.669 L 133.057 25.744 C 133.057 28.098 135.224 29.965 138.623 29.965 L 138.623 29.965 C 141.052 29.965 143.182 29.292 145.387 27.688 L 145.387 27.688 C 145.649 27.499 145.911 27.427 146.246 27.427 L 146.246 27.427 C 147.031 27.427 147.666 28.06 147.666 28.845 L 147.666 28.845 C 147.666 29.406 147.33 29.817 147.031 30.041 L 147.031 30.041 C 144.64 31.758 142.136 32.619 138.698 32.619 L 138.698 32.619 C 133.729 32.619 130.105 29.594 130.105 25.484 M 237.676 29.965 L 237.676 25.408 L 236.107 25.408 C 235.434 25.408 234.836 24.847 234.836 24.137 L 234.836 24.137 C 234.836 23.465 235.434 22.867 236.107 22.867 L 236.107 22.867 L 237.676 22.867 L 237.676 11.21 C 237.676 7.286 240.029 5.754 243.13 5.754 L 243.13 5.754 C 244.252 5.754 245.148 5.941 245.97 6.277 L 245.97 6.277 C 246.456 6.464 246.794 6.875 246.794 7.398 L 246.794 7.398 C 246.794 8.07 246.233 8.631 245.56 8.631 L 245.56 8.631 C 245.335 8.631 244.812 8.37 243.803 8.37 L 243.803 8.37 C 241.861 8.37 240.553 9.23 240.553 11.583 L 240.553 11.583 L 240.553 22.867 L 245.56 22.867 C 246.269 22.867 246.867 23.428 246.867 24.137 L 246.867 24.137 C 246.867 24.81 246.269 25.408 245.56 25.408 L 245.56 25.408 L 240.553 25.408 L 240.553 29.965 C 240.553 30.75 239.88 31.424 239.095 31.424 L 239.095 31.424 C 238.273 31.424 237.676 30.75 237.676 29.965 M 172.139 15.73 L 172.139 15.656 C 172.139 10.238 176.399 5.642 182.041 5.642 L 182.041 5.642 C 185.291 5.642 187.496 6.912 189.328 8.743 L 189.328 8.743 C 189.551 8.969 189.7 9.303 189.7 9.641 L 189.7 9.641 C 189.7 10.312 189.103 10.948 188.393 10.948 L 188.393 10.948 C 188.019 10.948 187.758 10.761 187.572 10.574 L 187.572 10.574 C 186.152 9.23 184.395 8.221 182.191 8.221 L 182.191 8.221 C 178.155 8.221 175.09 11.544 175.09 15.73 L 175.09 15.73 L 175.09 15.806 C 175.09 19.952 178.08 23.278 182.003 23.278 L 182.003 23.278 C 184.32 23.278 185.89 22.232 187.273 20.961 L 187.273 20.961 C 187.496 20.775 187.833 20.624 188.206 20.624 L 188.206 20.624 C 188.953 20.624 189.589 21.224 189.589 22.008 L 189.589 22.008 C 189.589 22.456 189.365 22.829 189.139 23.018 L 189.139 23.018 C 187.421 24.584 185.254 25.818 182.041 25.818 L 182.041 25.818 C 176.399 25.818 172.139 21.185 172.139 15.73 M 151.514 15.768 L 151.514 15.693 C 151.514 9.715 155.848 5.642 161.154 5.642 L 161.154 5.642 C 164.443 5.642 166.611 6.799 168.44 8.556 L 168.44 8.556 C 168.739 8.818 168.889 9.154 168.889 9.49 L 168.889 9.49 C 168.889 10.163 168.329 10.723 167.62 10.723 L 167.62 10.723 C 167.282 10.723 167.019 10.574 166.796 10.388 L 166.796 10.388 C 165.377 9.079 163.62 8.145 161.23 8.145 L 161.23 8.145 C 157.792 8.145 154.84 10.499 154.429 14.684 L 154.429 14.684 L 168.404 14.684 C 169.114 14.684 169.748 15.244 169.748 16.029 L 169.748 16.029 C 169.748 21.148 166.497 25.818 160.781 25.818 L 160.781 25.818 C 155.439 25.818 151.514 21.335 151.514 15.768 M 160.706 23.39 C 164.554 23.39 166.572 20.327 166.871 16.814 L 166.871 16.814 L 154.429 16.814 C 154.803 20.587 157.342 23.39 160.706 23.39 M 216.827 20.514 L 216.827 24.137 C 216.827 24.96 216.193 25.594 215.37 25.594 L 215.37 25.594 C 214.585 25.594 213.951 24.922 213.951 24.137 L 213.951 24.137 L 213.951 7.361 C 213.951 6.538 214.585 5.903 215.407 5.903 L 215.407 5.903 C 216.229 5.903 216.827 6.576 216.827 7.361 L 216.827 7.361 L 216.827 13.936 C 216.827 19.504 219.891 22.307 223.628 22.755 L 223.628 22.755 C 224.374 22.867 224.897 23.428 224.897 24.212 L 224.897 24.212 C 224.897 25.033 224.337 25.669 223.476 25.669 L 223.476 25.669 C 221.049 25.669 218.246 23.728 216.827 20.514 M 265.175 24.512 L 259.197 9.303 L 252.472 24.475 C 252.21 25.109 251.798 25.594 251.014 25.594 L 251.014 25.594 C 250.193 25.594 249.557 24.96 249.557 24.175 L 249.557 24.175 C 249.557 23.913 249.632 23.652 249.745 23.39 L 249.745 23.39 L 257.815 6.277 L 257.665 5.98 C 256.619 3.623 255.573 2.541 253.779 2.541 L 253.779 2.541 C 252.806 2.541 252.247 2.69 251.687 2.876 L 251.687 2.876 C 251.463 2.952 251.24 3.027 250.977 3.027 L 250.977 3.027 C 250.341 3.027 249.745 2.504 249.745 1.794 L 249.745 1.794 C 249.745 1.12 250.193 0.747 250.64 0.562 L 250.64 0.562 C 251.612 0.224 252.546 0 253.816 0 L 253.816 0 C 256.731 0 258.599 1.457 260.281 5.455 L 260.281 5.455 L 267.828 23.465 C 267.903 23.689 267.978 23.951 267.978 24.175 L 267.978 24.175 C 267.978 24.96 267.342 25.594 266.557 25.594 L 266.557 25.594 C 265.81 25.594 265.399 25.109 265.175 24.512 M 228.596 24.137 L 228.596 7.361 C 228.596 6.538 229.233 5.903 230.053 5.903 L 230.053 5.903 C 230.876 5.903 231.474 6.538 231.474 7.361 L 231.474 7.361 L 231.474 24.137 C 231.474 24.96 230.838 25.594 230.017 25.594 L 230.017 25.594 C 229.233 25.594 228.596 24.922 228.596 24.137 M 206.887 24.137 L 206.887 14.349 C 206.887 10.723 204.385 8.294 201.097 8.294 L 201.097 8.294 C 197.698 8.294 195.754 10.536 195.754 14.124 L 195.754 14.124 L 195.754 24.137 C 195.754 24.96 195.081 25.594 194.296 25.594 L 194.296 25.594 C 193.474 25.594 192.876 24.96 192.876 24.137 L 192.876 24.137 L 192.876 13.414 C 192.876 8.818 195.603 5.679 200.274 5.679 L 200.274 5.679 C 203.6 5.679 205.582 7.361 206.887 9.454 L 206.887 9.454 L 206.887 7.361 C 206.887 6.538 207.524 5.903 208.308 5.903 L 208.308 5.903 C 209.13 5.903 209.728 6.576 209.728 7.361 L 209.728 7.361 L 209.728 24.137 C 209.728 24.96 209.092 25.594 208.308 25.594 L 208.308 25.594 C 207.486 25.594 206.887 24.96 206.887 24.137" style="fill: none;"/>
    </g>
    <g style="clip-path: url(#clippath1);">
      <g transform="matrix(138.6949768 0 0 138.6949768 129.2830963 16.4959984)">
        <rect x="-0.9321397161083053" y="-0.1189372447409357" width="1.9447928556847347" height="0.6982769112082219" style="fill: url(#shading0);"/>
      </g>
    </g>
  </g>
</svg>