<?xml version="1.0" encoding="utf-8"?>
<svg viewBox="130.851 108.066 242.75 60" xmlns="http://www.w3.org/2000/svg">
  <defs>
    <clipPath id="clippath0" transform="">
      <path d="M 0 151.68 L 343.013 151.68 L 343.013 0 L 0 0 Z" style="fill: none; clip-rule: nonzero;"/>
    </clipPath>
  </defs>
  <g style="clip-path: url(#clippath0);" transform="matrix(1.015854, 0, 0, -1.015854, 75.248596, 219.466884)">
    <g transform="translate(288.8347 109.6625)">
      <path d="M 0 0 C 2.686 0 4.862 -2.194 4.862 -4.901 C 4.862 -7.608 2.686 -9.803 0 -9.803 C -2.685 -9.803 -4.861 -7.608 -4.861 -4.901 C -4.861 -2.194 -2.685 0 0 0" style="fill: rgb(0, 17, 86); fill-rule: evenodd; fill-opacity: 1;"/>
    </g>
  </g>
  <g style="clip-path: url(#clippath0);" transform="matrix(1.015854, 0, 0, -1.015854, 75.248596, 219.466884)">
    <g transform="translate(137.906 84.5819)">
      <path d="M 0 0 C -2.955 1.807 -6.767 3.064 -10.58 3.064 C -15.534 3.064 -18.108 0.944 -18.108 -1.806 C -18.108 -3.85 -16.772 -4.95 -14.009 -6.364 L -5.812 -10.374 C 0.189 -13.36 2 -16.66 2 -20.277 C 2 -26.8 -4.099 -30.965 -13.913 -30.965 C -18.68 -30.965 -23.062 -29.865 -25.92 -28.686 L -25.92 -21.612 C -23.541 -23.343 -19.06 -25.229 -14.295 -25.229 C -9.054 -25.229 -6.194 -23.184 -6.194 -20.277 C -6.194 -18.312 -7.435 -16.817 -10.96 -15.088 L -19.536 -10.846 C -24.396 -8.488 -26.398 -5.265 -26.398 -1.65 C -26.398 4.322 -20.871 8.883 -10.674 8.883 C -6.576 8.883 -2.67 8.018 0 6.916 Z" style="fill: rgb(0, 17, 86); fill-rule: evenodd; fill-opacity: 1;"/>
    </g>
  </g>
  <g style="clip-path: url(#clippath0);" transform="matrix(1.015854, 0, 0, -1.015854, 75.248596, 219.466884)">
    <g transform="translate(151.032 90.7914)">
      <path d="M 0 0 C 2.945 1.415 7.037 2.672 11.456 2.672 C 20.457 2.672 26.84 -1.73 26.84 -12.025 L 26.84 -36.387 L 20.049 -36.387 L 20.049 -32.223 C 17.919 -35.209 14.157 -37.174 9.574 -37.174 C 0.818 -37.174 -4.338 -31.358 -4.338 -24.441 C -4.338 -17.368 1.473 -11.868 9.655 -11.868 C 13.993 -11.868 18.085 -13.99 20.049 -16.348 L 20.049 -11.948 C 20.049 -5.814 15.547 -3.3 10.801 -3.3 C 6.873 -3.3 3.191 -4.557 0 -6.444 Z M 11.211 -32.145 C 16.038 -32.145 19.966 -28.765 19.966 -24.441 C 19.966 -20.277 15.875 -16.897 11.211 -16.897 C 6.382 -16.897 2.454 -20.277 2.454 -24.441 C 2.454 -28.765 6.465 -32.145 11.211 -32.145" style="fill: rgb(0, 17, 86); fill-rule: evenodd; fill-opacity: 1;"/>
    </g>
  </g>
  <g style="clip-path: url(#clippath0);" transform="matrix(1.015854, 0, 0, -1.015854, 75.248596, 219.466884)">
    <g transform="translate(191.4968 54.4037)">
      <path d="M 0 0 L 0 32.615 L -7.448 32.615 L -7.448 38.274 L 0.327 38.274 L 0.327 47.625 L 6.792 49.277 L 6.792 38.274 L 14.648 38.274 L 14.648 32.615 L 6.792 32.615 L 6.792 0 Z" style="fill: rgb(0, 17, 86); fill-rule: evenodd; fill-opacity: 1;"/>
    </g>
  </g>
  <g style="clip-path: url(#clippath0);" transform="matrix(1.015854, 0, 0, -1.015854, 75.248596, 219.466884)">
    <g transform="translate(228.6257 93.4633)">
      <path d="M 0 0 C 10.631 0 18.676 -8.722 18.676 -19.884 C 18.676 -31.202 10.631 -39.846 0 -39.846 C -10.483 -39.846 -18.676 -31.202 -18.676 -19.884 C -18.676 -8.722 -10.483 0 0 0 M 0 -33.481 C 7.087 -33.481 12.4 -27.43 12.4 -19.884 C 12.4 -12.417 7.087 -6.444 0 -6.444 C -7.013 -6.444 -12.329 -12.417 -12.329 -19.884 C -12.329 -27.43 -7.013 -33.481 0 -33.481" style="fill: rgb(0, 17, 86); fill-rule: evenodd; fill-opacity: 1;"/>
    </g>
  </g>
  <g style="clip-path: url(#clippath0);" transform="matrix(1.015854, 0, 0, -1.015854, 75.248596, 219.466884)">
    <g transform="translate(262.3669 87.4916)">
      <path d="M 0 0 C 1.883 3.537 5.237 5.972 10.313 5.972 C 11.376 5.972 12.604 5.814 13.667 5.579 L 13.667 -1.415 C 12.357 -0.865 10.64 -0.472 8.838 -0.472 C 3.109 -0.472 0.247 -4.402 0 -10.296 L 0 -33.087 L -6.791 -33.087 L -6.791 5.185 L 0 5.185 Z" style="fill: rgb(0, 17, 86); fill-rule: evenodd; fill-opacity: 1;"/>
    </g>
  </g>
  <g style="clip-path: url(#clippath0);" transform="matrix(1.015854, 0, 0, -1.015854, 75.248596, 219.466884)">
    <g transform="">
      <path d="M 285.438 54.403 L 292.231 54.403 L 292.231 92.677 L 285.438 92.677 Z" style="fill: rgb(0, 17, 86); fill-rule: evenodd; fill-opacity: 1;"/>
    </g>
    <g transform="translate(57.74 62.1869)">
      <path d="M 0 0 C -1.908 3.345 -3.005 7.212 -3.005 11.339 C -3.005 23.996 7.256 34.256 19.912 34.256 C 24.146 34.256 28.109 33.103 31.513 31.101 L 31.511 31.101 L 31.513 31.101 C 31.538 31.086 31.563 31.072 31.589 31.057 C 31.542 10.693 0.29 17.543 0 0" style="fill: rgb(34, 60, 170); fill-opacity: 1;"/>
    </g>
    <g transform="translate(88.9909 93.4379)">
      <path d="M 0 0 C -3.345 1.909 -7.212 3.005 -11.339 3.005 C -23.995 3.005 -34.256 -7.255 -34.256 -19.912 C -34.256 -24.146 -33.103 -28.109 -31.101 -31.512 L -31.101 -31.511 L -31.101 -31.512 C -31.086 -31.538 -31.071 -31.563 -31.057 -31.589 C -10.692 -31.542 -17.543 -0.29 0 0" style="fill: rgb(48, 79, 241); fill-opacity: 1;"/>
    </g>
    <g transform="translate(97.5827 84.8544)">
      <path d="M 0 0 C 1.908 -3.344 3.005 -7.212 3.005 -11.338 C 3.005 -23.995 -7.256 -34.255 -19.912 -34.255 C -24.146 -34.255 -28.108 -33.103 -31.512 -31.101 L -31.511 -31.101 L -31.512 -31.101 C -31.537 -31.085 -31.563 -31.071 -31.589 -31.056 C -31.542 -10.692 -0.29 -17.542 0 0" style="fill: rgb(191, 163, 75); fill-opacity: 1;"/>
    </g>
    <g transform="translate(66.3318 53.6039)">
      <path d="M 0 0 C 3.345 -1.909 7.213 -3.005 11.339 -3.005 C 23.995 -3.005 34.256 7.255 34.256 19.912 C 34.256 24.146 33.103 28.108 31.101 31.512 L 31.101 31.511 L 31.101 31.512 C 31.086 31.537 31.071 31.563 31.057 31.589 C 10.692 31.542 17.543 0.29 0 0" style="fill: rgb(242, 210, 92); fill-opacity: 1;"/>
    </g>
  </g>
</svg>