<?xml version="1.0" encoding="utf-8"?>
<svg viewBox="-1.55 21.065 489.635 60" xmlns="http://www.w3.org/2000/svg">
  <path d="M 288.583 22.096 L 269.583 22.096 L 269.583 80.083 L 288.583 80.083 C 306.797 80.083 318.019 68.958 318.019 51.141 C 318.019 33.229 306.797 22.096 288.583 22.096 Z M 312.112 51.038 C 312.112 65.807 303.152 74.567 288.09 74.567 L 275.379 74.567 L 275.379 27.509 L 287.979 27.509 C 303.09 27.607 312.099 36.372 312.099 51.038 Z M 367.739 58.905 C 367.739 68.549 361.339 74.656 351.099 74.656 C 340.957 74.656 334.565 68.656 334.565 59.101 L 334.565 22.078 L 328.761 22.078 L 328.761 59.189 C 328.761 71.692 337.721 80.061 351.205 80.061 C 364.597 80.061 373.552 71.692 373.552 59.189 L 373.552 22.078 L 367.739 22.078 Z M 429.459 68.265 C 429.361 68.363 422.57 75.452 411.05 75.452 C 397.561 75.452 387.423 64.821 387.423 50.643 C 387.423 36.954 397.468 26.621 410.854 26.621 C 421.583 26.621 428.081 32.532 428.188 32.621 L 429.077 33.509 L 432.619 29.278 L 431.93 28.589 C 431.637 28.296 424.641 21.212 410.863 21.212 C 394.125 21.212 381.53 33.909 381.53 50.745 C 381.53 68.078 394.228 81.065 411.161 81.065 C 425.383 81.065 433.117 72.598 433.41 72.203 L 434.099 71.416 L 430.357 67.381 Z M 487.148 22.096 L 479.668 22.096 L 453.339 46.909 L 449.797 46.909 L 449.797 22.101 L 443.988 22.101 L 443.988 80.087 L 449.797 80.087 L 449.797 52.421 L 453.339 52.421 L 480.708 80.083 L 488.085 80.083 L 458.308 49.563 Z" fill="#00adee"/>
  <path d="M -1.55 22.096 L 21.881 22.096 C 33.499 22.096 41.57 27.314 41.57 37.207 C 41.57 42.029 39.206 47.052 34.877 49.518 L 34.877 49.714 C 41.57 51.781 43.934 57.687 43.934 62.807 C 43.934 75.407 33.401 80.034 21.881 80.034 L -1.55 80.034 Z M 21.979 44.541 C 25.521 44.541 27.099 41.981 27.099 39.225 C 27.099 36.567 25.526 34.301 21.783 34.301 L 12.628 34.301 L 12.628 44.638 L 21.979 44.638 Z M 23.117 67.874 C 27.25 67.874 29.321 65.021 29.321 61.772 C 29.321 58.523 27.352 55.861 23.219 55.861 L 12.628 55.861 L 12.628 67.869 Z M 51.117 22.096 L 65.339 22.096 L 65.339 67.874 L 88.966 67.874 L 88.966 80.083 L 51.117 80.083 Z M 130.472 67.874 L 112.361 67.874 L 108.917 80.083 L 94.25 80.083 L 113.939 22.096 L 128.894 22.096 L 148.583 80.083 L 134.014 80.083 Z M 121.317 35.287 L 118.952 45.229 L 115.606 56.452 L 127.028 56.452 L 123.783 45.229 C 122.699 41.585 121.419 35.287 121.419 35.287 Z M 180.783 21.065 C 195.157 21.065 202.539 29.243 202.539 29.243 L 195.943 39.972 C 195.943 39.972 189.441 34.109 181.472 34.109 C 170.348 34.109 165.13 42.287 165.13 50.643 C 165.13 59.207 170.841 68.065 181.472 68.065 C 190.228 68.065 196.832 60.976 196.832 60.976 L 204.121 71.314 C 204.121 71.314 195.943 81.061 180.788 81.061 C 162.672 81.061 150.366 68.163 150.366 50.936 C 150.366 34.101 163.361 21.105 180.788 21.105 Z M 212.672 22.096 L 226.894 22.096 L 226.894 44.443 L 228.863 44.443 L 243.73 22.096 L 258.988 22.096 L 240.481 49.861 L 240.481 50.056 L 259.974 80.181 L 244.125 80.181 L 229.014 56.652 L 227.045 56.652 L 227.045 80.181 L 212.823 80.181 L 212.823 22.092 Z"/>
</svg>