<?xml version="1.0" encoding="utf-8"?>
<svg viewBox="-6.459 -0.003 64.361 60" xmlns="http://www.w3.org/2000/svg">
  <path d="M 28.573 59.985 C 21.185 59.663 12.673 59.985 4.225 58.764 C 2.716 58.539 1.463 58.026 0.435 56.933 C -1.3 55.069 -2.648 52.95 -3.483 50.573 C -5.379 45.306 -6.631 39.909 -6.44 34.299 C -6.376 32.79 -6.504 31.023 -4.931 30.155 C -3.325 29.288 -1.847 30.251 -0.465 31.119 C -0.143 31.312 0.178 31.504 0.466 31.729 C 4.385 35.134 8.85 35.519 13.7 34.203 C 16.077 33.56 18.55 33.433 21.022 33.978 C 21.889 34.171 22.629 34.042 23.143 33.271 C 23.646 32.468 23.271 31.697 22.791 31.054 C 22.534 30.669 22.117 30.347 21.73 30.123 C 13.796 25.015 13.058 12.102 17.265 5.775 C 21.698 -0.917 30.532 -2.01 36.248 3.621 C 37.276 4.627 38.271 5.677 39.235 6.769 C 40.263 7.894 41.42 7.99 42.735 7.348 C 43.892 6.769 44.952 6.063 45.916 5.195 C 46.494 4.649 47.105 4.103 47.714 3.621 C 48.164 3.269 48.678 2.69 49.256 3.043 C 49.739 3.331 49.706 4.071 49.759 4.649 C 49.92 7.284 48.795 9.66 48.089 12.092 C 47.64 13.601 47.961 14.277 49.503 14.501 C 50.508 14.63 51.494 14.886 52.458 15.175 C 53.036 15.336 53.765 15.432 53.936 16.235 C 54.107 17.039 53.519 17.52 52.973 17.938 L 48.701 21.311 C 46.388 23.206 45.264 25.777 44.718 28.603 C 44.429 30.112 45.006 31.333 46.324 32.169 C 47.545 32.939 48.765 33.677 50.019 34.417 C 57.462 38.785 58.82 46.237 57.406 52.984 C 56.604 56.935 53.488 59.215 49.472 59.442 C 42.834 59.764 36.239 60.052 28.551 59.988 Z" fill="#010101"/>
</svg>