<?xml version="1.0" encoding="utf-8"?>
<svg viewBox="51.345 64 65.581 60" xmlns="http://www.w3.org/2000/svg">
  <defs>
    <style>.cls-1{fill:#40be46;}</style>
  </defs>
  <path class="cls-1" d="M 116.691 124 L 51.582 124 L 51.582 119.004 L 116.691 119.004 Z"/>
  <path class="cls-1" d="M 77.391 82.582 L 77.391 82.582 C 77.391 79.009 80.537 76.101 84.406 76.101 C 88.275 76.101 91.416 79 91.416 82.582 C 91.416 86.165 88.268 89.061 84.401 89.061 C 80.534 89.061 77.387 86.154 77.387 82.582 M 116.232 81.051 C 116.089 80.879 112.643 76.763 106.968 72.568 C 103.847 70.223 100.456 68.261 96.869 66.722 C 92.572 64.913 88.284 64 84.137 64 C 79.99 64 75.704 64.918 71.393 66.726 C 67.806 68.265 64.416 70.228 61.295 72.572 C 55.623 76.763 52.18 80.884 52.03 81.051 C 51.117 82.146 51.117 83.737 52.03 84.832 C 52.176 85.007 55.619 89.121 61.295 93.318 C 64.416 95.662 67.806 97.625 71.393 99.164 C 75.704 100.973 79.996 101.89 84.137 101.89 C 85.672 101.887 87.204 101.765 88.721 101.526 L 88.008 96.982 C 86.727 97.184 85.433 97.286 84.137 97.287 C 80.607 97.287 76.917 96.49 73.173 94.92 C 69.926 93.525 66.856 91.748 64.03 89.626 C 61.331 87.628 58.816 85.393 56.515 82.949 C 58.817 80.505 61.332 78.27 64.03 76.271 C 66.857 74.15 69.926 72.372 73.173 70.977 C 76.923 69.407 80.605 68.608 84.137 68.608 C 87.668 68.608 91.359 69.407 95.1 70.977 C 98.347 72.372 101.417 74.15 104.243 76.271 C 106.941 78.271 109.456 80.505 111.759 82.949 C 109.458 85.394 106.942 87.628 104.243 89.626 C 102.607 90.843 100.896 91.956 99.119 92.957 L 97.954 93.618 L 95.601 94.942 L 92.662 90.36 C 94.795 88.334 96.008 85.524 96.02 82.582 C 96.02 76.472 90.809 71.504 84.406 71.504 C 78.002 71.504 72.792 76.472 72.792 82.582 C 72.792 88.693 78.002 93.66 84.406 93.66 C 85.905 93.661 87.391 93.38 88.787 92.833 L 93.935 100.838 L 94.251 100.633 L 94.383 100.876 C 95.279 100.388 98.303 98.69 100.204 97.622 L 101.367 96.96 C 103.311 95.862 105.185 94.645 106.979 93.314 C 112.648 89.123 116.093 85.002 116.243 84.835 C 117.156 83.738 117.153 82.145 116.237 81.051 Z"/>
</svg>