<?xml version="1.0" encoding="utf-8"?>
<svg viewBox="32.271 57.69 147.033 60" xmlns="http://www.w3.org/2000/svg">
  <defs>
    <style>.cls-1{fill:#40be46;}.cls-2{fill:#1d1d1b;}</style>
  </defs>
  <path class="cls-1" d="M 90.012 117.512 L 32.495 117.512 L 32.495 113.089 L 90.012 113.089 Z"/>
  <path class="cls-1" d="M 55.282 80.907 L 55.282 80.907 C 55.282 77.751 58.088 75.179 61.483 75.179 C 64.878 75.179 67.683 77.751 67.683 80.907 C 67.683 84.064 64.878 86.631 61.483 86.631 C 58.088 86.631 55.282 84.064 55.282 80.907 M 89.61 79.556 C 87.166 76.768 84.421 74.259 81.427 72.074 C 78.669 70.009 75.674 68.282 72.505 66.93 C 68.949 65.384 65.121 64.566 61.244 64.522 C 57.368 64.566 53.539 65.384 49.984 66.93 C 46.814 68.283 43.817 70.01 41.057 72.074 C 38.067 74.264 35.325 76.772 32.879 79.556 C 32.069 80.523 32.069 81.932 32.879 82.899 C 35.325 85.683 38.067 88.192 41.057 90.381 C 43.818 92.444 46.815 94.17 49.984 95.525 C 53.54 97.068 57.368 97.887 61.244 97.933 C 62.6 97.931 63.954 97.823 65.294 97.611 L 64.663 93.594 C 63.532 93.774 62.389 93.867 61.244 93.87 C 57.907 93.824 54.613 93.111 51.555 91.775 C 48.685 90.543 45.973 88.973 43.475 87.098 C 41.088 85.337 38.861 83.369 36.821 81.216 C 38.86 79.058 41.086 77.087 43.475 75.324 C 45.973 73.449 48.685 71.88 51.555 70.648 C 54.613 69.312 57.908 68.602 61.244 68.557 C 64.579 68.602 67.872 69.313 70.929 70.648 C 73.799 71.878 76.512 73.448 79.009 75.324 C 81.394 77.087 83.618 79.059 85.654 81.216 C 83.616 83.373 81.393 85.346 79.009 87.112 C 77.564 88.19 76.053 89.174 74.483 90.058 L 73.454 90.634 L 71.373 91.803 L 68.778 87.762 C 70.662 85.971 71.733 83.488 71.742 80.889 C 71.742 75.492 67.141 71.101 61.483 71.101 C 55.825 71.101 51.219 75.511 51.219 80.907 C 51.219 86.304 55.825 90.694 61.483 90.694 C 62.808 90.695 64.121 90.448 65.355 89.965 L 69.9 97.031 L 70.18 96.848 L 70.297 97.063 C 71.088 96.633 73.762 95.132 75.441 94.188 L 76.47 93.612 C 78.188 92.643 79.843 91.567 81.427 90.39 C 84.419 88.205 87.162 85.695 89.605 82.909 C 90.422 81.941 90.424 80.526 89.61 79.556 Z"/>
  <path class="cls-2" d="M 114.857 101.323 L 109.329 85.705 L 114.628 85.705 L 118.008 96.025 L 118.097 96.025 L 121.572 85.705 L 126.318 85.705 L 120.795 101.323 L 126.603 117.69 L 121.296 117.69 L 117.644 106.547 L 117.55 106.547 L 113.809 117.69 L 109.054 117.69 Z"/>
  <path class="cls-2" d="M 128.969 85.696 L 136.423 85.696 C 139.014 85.696 140.901 86.297 142.086 87.501 C 143.271 88.704 143.865 90.553 143.868 93.047 L 143.868 95.011 C 143.868 98.331 142.777 100.432 140.594 101.314 L 140.594 101.408 C 141.751 101.722 142.701 102.546 143.176 103.647 C 143.733 105.087 143.989 106.626 143.928 108.169 L 143.928 113.781 C 143.919 114.521 143.95 115.261 144.022 115.997 C 144.09 116.573 144.248 117.135 144.49 117.662 L 139.336 117.662 C 139.165 117.189 139.043 116.701 138.972 116.203 C 138.896 115.382 138.867 114.558 138.883 113.734 L 138.883 107.889 C 138.883 106.424 138.646 105.403 138.172 104.826 C 137.698 104.249 136.885 103.961 135.731 103.961 L 133.992 103.961 L 133.992 117.69 L 128.969 117.69 Z M 135.82 99.397 C 136.649 99.461 137.468 99.18 138.083 98.621 C 138.584 98.102 138.836 97.218 138.836 96.016 L 138.836 93.552 C 138.836 92.392 138.63 91.555 138.219 91.04 C 137.73 90.491 137.011 90.203 136.278 90.264 L 133.992 90.264 L 133.992 99.397 Z"/>
  <path class="cls-2" d="M 151.261 85.696 L 158.064 85.696 L 163.274 117.69 L 158.247 117.69 L 157.335 111.344 L 157.335 111.433 L 151.625 111.433 L 150.714 117.69 L 146.037 117.69 Z M 156.741 107.07 L 154.501 91.265 L 154.412 91.265 L 152.219 107.07 Z"/>
  <path class="cls-2" d="M 168.221 104.054 L 162.142 85.696 L 167.473 85.696 L 170.901 97.433 L 170.989 97.433 L 174.417 85.696 L 179.304 85.696 L 173.225 104.054 L 173.225 117.69 L 168.221 117.69 Z"/>
  <path class="cls-1" d="M 123.405 73.837 L 120.057 73.837 L 120.057 57.69 L 129.311 57.69 L 129.311 60.496 L 123.405 60.496 L 123.405 64.658 L 128.885 64.658 L 128.885 67.463 L 123.405 67.463 Z M 139.075 61.258 C 139.457 61.251 139.84 61.284 140.216 61.356 L 139.958 64.513 C 139.634 64.436 139.301 64.399 138.967 64.405 C 138.055 64.349 137.156 64.645 136.456 65.233 C 135.826 65.842 135.496 66.697 135.553 67.571 L 135.553 73.837 L 132.187 73.837 L 132.187 61.487 L 134.735 61.487 L 135.235 63.563 L 135.399 63.563 C 135.77 62.886 136.304 62.31 136.952 61.889 C 137.582 61.475 138.32 61.255 139.075 61.258 Z M 145.154 67.641 L 145.154 67.641 C 145.092 68.602 145.301 69.561 145.757 70.409 C 146.193 71.052 146.942 71.409 147.716 71.344 C 148.485 71.407 149.227 71.05 149.657 70.409 C 150.095 69.56 150.293 68.608 150.232 67.655 C 150.295 66.7 150.088 65.747 149.633 64.905 C 148.62 63.688 146.751 63.688 145.738 64.905 C 145.285 65.748 145.078 66.7 145.14 67.655 Z M 153.692 67.641 C 153.692 69.652 153.162 71.223 152.102 72.354 C 151.042 73.486 149.557 74.053 147.646 74.057 C 146.553 74.073 145.476 73.8 144.522 73.266 C 143.617 72.75 142.889 71.97 142.437 71.031 C 141.934 69.978 141.684 68.822 141.707 67.655 C 141.707 65.635 142.233 64.067 143.283 62.951 C 144.334 61.835 145.814 61.275 147.725 61.272 C 148.819 61.249 149.9 61.515 150.859 62.044 C 151.764 62.556 152.493 63.33 152.949 64.265 C 153.456 65.321 153.706 66.483 153.678 67.655 Z M 158.916 65.532 L 158.916 65.532 C 158.889 66.099 159.053 66.659 159.383 67.122 C 159.73 67.531 160.252 67.748 160.786 67.706 C 161.321 67.754 161.846 67.536 162.189 67.122 C 162.507 66.655 162.663 66.096 162.633 65.532 C 162.633 64.045 162.021 63.297 160.8 63.297 C 159.58 63.297 158.902 64.045 158.902 65.532 Z M 157.676 75.604 L 157.676 75.604 C 157.674 76.066 157.933 76.49 158.345 76.699 C 158.923 76.993 159.568 77.13 160.216 77.096 C 161.196 77.136 162.174 76.957 163.077 76.572 C 163.76 76.24 164.101 75.791 164.101 75.216 C 164.13 74.799 163.886 74.41 163.498 74.253 C 162.897 74.05 162.262 73.961 161.628 73.991 L 159.851 73.991 C 159.301 73.972 158.758 74.124 158.298 74.426 C 157.897 74.681 157.66 75.129 157.676 75.604 Z M 167.206 61.51 L 167.206 63.222 L 165.27 63.722 C 165.629 64.279 165.815 64.93 165.804 65.593 C 165.86 66.791 165.339 67.944 164.401 68.693 C 163.465 69.432 162.194 69.801 160.552 69.801 L 159.944 69.769 L 159.449 69.712 C 159.143 69.906 158.95 70.235 158.93 70.596 C 158.93 71.064 159.547 71.326 160.8 71.326 L 162.9 71.326 C 164.25 71.326 165.281 71.617 165.995 72.2 C 166.731 72.839 167.126 73.786 167.061 74.758 C 167.105 76.12 166.416 77.401 165.256 78.116 C 164.053 78.91 162.324 79.31 160.071 79.313 C 158.35 79.313 157.031 79.009 156.124 78.41 C 155.248 77.875 154.726 76.911 154.758 75.885 C 154.738 75.194 154.988 74.523 155.455 74.015 C 156.015 73.463 156.726 73.09 157.499 72.944 C 157.139 72.787 156.826 72.539 156.592 72.224 C 156.071 71.563 156.081 70.629 156.615 69.979 C 156.955 69.604 157.355 69.288 157.798 69.044 C 157.154 68.769 156.614 68.298 156.255 67.697 C 155.864 67.035 155.666 66.277 155.684 65.509 C 155.608 64.312 156.093 63.148 156.998 62.362 C 157.873 61.623 159.126 61.258 160.739 61.258 C 161.151 61.261 161.562 61.293 161.969 61.351 C 162.437 61.412 162.745 61.459 162.881 61.487 Z M 110.859 78.607 C 110.177 78.619 109.497 78.537 108.838 78.363 L 108.838 75.492 C 109.365 75.63 109.907 75.703 110.452 75.712 C 111.074 75.771 111.684 75.506 112.065 75.011 C 112.45 74.34 112.627 73.57 112.575 72.799 L 112.575 57.69 L 115.998 57.69 L 115.998 72.799 C 115.998 74.669 115.567 76.105 114.707 77.105 C 113.819 78.092 112.547 78.583 110.859 78.583 Z"/>
</svg>