<?xml version="1.0" encoding="utf-8"?>
<svg viewBox="0 0 420.391 60" xmlns="http://www.w3.org/2000/svg">
  <defs>
    <style>.st0{fill:#253858}.st1{fill:none}.st2{fill:#2684ff}.st3{fill:url(#SVGID_1_)}</style>
  </defs>
  <g id="Layer_2_1_" transform="matrix(0.44976, 0, 0, 0.44976, 0, 0)">
    <g id="Blue">
      <path class="st0" d="M246.4 9.7c24.8 0 36.9 12.2 36.9 31.9 0 14.8-6.7 23.7-20.4 27.1 18 3 26.9 12.8 26.9 30 0 19.5-13.2 32.8-40.4 32.8h-50.3V9.7h47.3zm-30.6 15.9v36.3h28.4c15.8 0 22.3-7.2 22.3-19s-7-17.4-22.3-17.4l-28.4.1zm0 51.2v37.9h34.1c16 0 23.2-5.8 23.2-18 0-13-6.9-20-23.5-20l-33.8.1zM317 3.2c5.7-.4 10.7 3.9 11.1 9.6v1.5c0 6.1-5 11.1-11.1 11.1s-11.1-5-11.1-11.1c-.4-5.7 3.9-10.7 9.6-11.1.5-.1 1-.1 1.5 0zm-8.1 35.6h16v92.7h-16V38.8zM385.7 115.9c3.4-.1 6.7-.5 10-1.3V130c-3.5 1-7.1 1.5-10.7 1.5-19.9 0-29.5-11.7-29.5-28.9v-49h-15V38.8h15V19.1H371v19.7h24.7v14.8H371v48.7c0 8.1 4.8 13.6 14.7 13.6zM461.5 133.3c-13.5 0-23.9-6.1-29.5-18.2v16.3h-16V0h16.1v55.4c5.9-12.2 17.1-18.5 31.3-18.5 24.7 0 37.1 20.9 37.1 48.2-.1 26.2-13 48.2-39 48.2zm-2.4-81.6c-14.3 0-27 9.1-27 29.7v7.4c0 20.6 11.7 29.7 25.3 29.7 18 0 27.3-11.9 27.3-33.4-.2-22.2-9.1-33.4-25.6-33.4zM517.1 38.8h16v56.1c0 16.7 6.7 24.1 21.9 24.1 14.8 0 25-9.8 25-28.6V38.8h16v92.7h-16v-15.2c-5.8 10.7-17.1 17.3-29.3 17.1-21.3 0-33.6-14.8-33.6-40.3V38.8zM685.5 129.1c-5.6 3-14.1 4.2-22.6 4.2-33 0-48.5-20-48.5-48.5 0-28 15.4-48 48.5-48 7.6-.2 15.2 1.3 22.1 4.6v14.8c-6.6-3.1-13.8-4.6-21.1-4.4C639.8 51.8 630 67 630 85s10 33.2 34.3 33.2c7.2.2 14.3-.9 21.1-3.3l.1 14.2zM703.7 131.5V0h16v82.2l39.9-43.4h20.8l-43.6 45.5 45.4 47.2h-21.7l-40.8-43.4v43.4h-16zM835 133.3c-34.7 0-49.9-20-49.9-48.5 0-28 15.6-48 43.8-48 28.6 0 40 19.9 40 48V92h-67.7c2.2 15.8 12.4 26 34.3 26 9.6 0 19.2-1.7 28.2-5v14.8c-7.5 4.1-19.2 5.5-28.7 5.5zm-33.9-54.8h51.7c-.9-17.2-8.7-27.1-24.7-27.1-16.9-.1-25.4 10.9-27.1 27v.1zM924.6 115.9c3.4-.1 6.7-.5 10-1.3V130c-3.5 1-7.1 1.5-10.7 1.5-19.9 0-29.5-11.7-29.5-28.9v-49h-15V38.8h15V19.1H910v19.7h24.7v14.8H910v48.7c-.1 8.1 4.7 13.6 14.6 13.6z"/>
      <path class="st1" d="M52.1 91.7h27.5l6.7-38.8H44.8z"/>
      <path class="st2" d="M4.3 13.2C1.9 13.2 0 15 0 17.4c0 .2 0 .5.1.7L18 126.7c.5 2.7 2.8 4.8 5.6 4.8h85.8c2.1 0 3.9-1.5 4.2-3.5l17.9-109.8c.4-2.3-1.2-4.5-3.5-4.8-.2 0-.5-.1-.7-.1l-123-.1zm75.3 78.5H52.2l-7.4-38.8h41.5l-6.7 38.8z"/>
      <linearGradient id="SVGID_1_" gradientUnits="userSpaceOnUse" x1="134.973" y1="72.261" x2="69.598" y2="21.238" gradientTransform="matrix(1 0 0 -1 0 136.077)">
        <stop offset="0.18" stop-color="#0052cc"/>
        <stop offset="1" stop-color="#2684ff"/>
      </linearGradient>
      <path class="st3" d="M125.8 52.9H86.3l-6.6 38.8H52.2l-32.4 38.4c1 .9 2.3 1.4 3.7 1.4h85.9c2.1 0 3.9-1.5 4.2-3.5l12.2-75.1z"/>
    </g>
  </g>
</svg>