<?xml version="1.0" encoding="utf-8"?>
<svg viewBox="0 0 60.915 60" xmlns="http://www.w3.org/2000/svg">
  <path d="M 30.458 0 C 13.629 0 0 13.629 0 30.458 C 0 44.771 9.822 56.651 23.073 60 C 22.92 59.619 22.844 59.085 22.844 58.554 L 22.844 53.375 L 19.037 53.375 C 16.981 53.375 15.076 52.462 14.239 50.785 C 13.248 48.958 13.095 46.14 10.584 44.388 C 9.822 43.778 10.431 43.169 11.268 43.244 C 12.867 43.701 14.161 44.769 15.379 46.365 C 16.597 47.965 17.131 48.346 19.415 48.346 C 20.48 48.346 22.155 48.271 23.679 48.04 C 24.516 45.907 25.963 44.004 27.715 43.092 C 17.512 41.873 12.639 36.847 12.639 29.994 C 12.639 27.023 13.933 24.205 16.066 21.769 C 15.382 19.407 14.467 14.534 16.372 12.631 C 20.942 12.631 23.682 15.602 24.366 16.362 C 26.65 15.599 29.164 15.143 31.751 15.143 C 34.416 15.143 36.852 15.599 39.136 16.362 C 39.82 15.599 42.563 12.631 47.13 12.631 C 48.958 14.459 48.12 19.407 47.358 21.769 C 49.492 24.13 50.71 27.023 50.71 29.994 C 50.71 36.847 45.912 41.873 35.787 42.939 C 38.605 44.385 40.585 48.496 40.585 51.542 L 40.585 58.478 C 40.585 58.707 40.51 58.935 40.51 59.163 C 52.387 55.052 60.915 43.784 60.915 30.458 C 60.915 13.629 47.286 0 30.458 0 L 30.458 0 Z"/>
</svg>