<?xml version="1.0" encoding="utf-8"?>
<svg viewBox="0.165 0.421 65.135 60" xmlns="http://www.w3.org/2000/svg">
  <path d="M 32.732 60.421 L 44.725 23.51 L 20.738 23.51 L 32.732 60.421 Z" fill="#E24329"/>
  <path d="M 32.732 60.42 L 20.738 23.51 L 3.931 23.51 L 32.732 60.42 Z" fill="#FC6D26"/>
  <path d="M 3.931 23.51 L 0.286 34.727 C -0.046 35.75 0.318 36.87 1.188 37.503 L 32.732 60.421 L 3.93 23.51 Z" fill="#FCA326"/>
  <path d="M 3.931 23.51 L 20.738 23.51 L 13.515 1.279 C 13.144 0.135 11.525 0.135 11.154 1.279 L 3.931 23.51 Z" fill="#E24329"/>
  <path d="M 32.732 60.42 L 44.725 23.51 L 61.533 23.51 L 32.732 60.42 Z" fill="#FC6D26"/>
  <path d="M 61.533 23.51 L 65.178 34.727 C 65.51 35.75 65.146 36.87 64.276 37.503 L 32.732 60.421 L 61.533 23.51 Z" fill="#FCA326"/>
  <path d="M 61.533 23.51 L 44.725 23.51 L 51.948 1.279 C 52.32 0.135 53.938 0.135 54.31 1.279 L 61.533 23.51 Z" fill="#E24329"/>
</svg>