<?xml version="1.0" encoding="UTF-8" standalone="no"?><!DOCTYPE svg PUBLIC "-//W3C//DTD SVG 1.1//EN" "http://www.w3.org/Graphics/SVG/1.1/DTD/svg11.dtd"><svg width="100%" height="100%" viewBox="0 0 1250 1367" version="1.1" xmlns="http://www.w3.org/2000/svg" xmlns:xlink="http://www.w3.org/1999/xlink" xml:space="preserve" xmlns:serif="http://www.serif.com/" style="fill-rule:evenodd;clip-rule:evenodd;stroke-linejoin:round;stroke-miterlimit:2;"><g id="logo-mark" serif:id="logo mark"><path id="bomb" d="M699.217,300.607c88.119,30.74 151.343,114.575 151.343,213.177l-0,250.819c-0,124.659 -101.057,225.716 -225.717,225.716c-124.66,0 -225.717,-101.057 -225.717,-225.716l0,-250.819c0,-98.602 63.224,-182.437 151.344,-213.177l-44.818,-32.767c-4.313,-3.152 -7.506,-7.6 -9.114,-12.693l-52.154,-165.152c-4.813,-15.242 -2.074,-31.864 7.374,-44.756c9.448,-12.891 24.475,-20.508 40.458,-20.508l12.669,-0c4.405,-0 8.486,2.311 10.753,6.088l59.939,99.9c1.45,2.416 4.335,3.568 7.05,2.816c2.716,-0.752 4.597,-3.224 4.597,-6.042l-0,-102.413c-0,-0.117 0,-0.233 0.001,-0.349c0.186,-13.69 11.344,-24.731 25.078,-24.731l25.08,0c13.735,0 24.892,11.041 25.078,24.731c0.001,0.116 0.002,0.232 0.002,0.349l-0,102.413c-0,2.818 1.88,5.29 4.596,6.042c2.716,0.752 5.6,-0.4 7.05,-2.816l59.94,-99.9c2.266,-3.777 6.348,-6.088 10.753,-6.088l11.806,-0c15.983,-0 31.009,7.617 40.458,20.508c9.448,12.892 12.186,29.514 7.373,44.756l-52.187,165.258c-1.587,5.028 -4.719,9.428 -8.95,12.574l-44.085,32.78Zm-74.374,589.394c-34.604,-0 -62.699,14.047 -62.699,31.349c-0,17.303 28.095,31.35 62.699,31.35c34.605,-0 62.699,-14.047 62.699,-31.35c0,-17.302 -28.094,-31.349 -62.699,-31.349Zm-78.275,-392.666c0,-9.997 -3.971,-19.585 -11.04,-26.654c-7.069,-7.069 -16.66,-11.04 -26.657,-11.04c-9.998,-0 -19.589,3.971 -26.658,11.04c-7.069,7.069 -11.04,16.657 -11.04,26.654l-0,225.567c-0,9.997 3.971,19.585 11.04,26.654c7.069,7.069 16.66,11.04 26.658,11.04c9.997,0 19.588,-3.971 26.657,-11.04c7.069,-7.069 11.04,-16.657 11.04,-26.654l0,-225.567Z" style="fill:#21343f;"/><path id="scene" d="M963.126,751.19c-2.554,-1.341 -3.864,-4.251 -3.174,-7.052c0.69,-2.801 3.202,-4.77 6.087,-4.77c100.032,-0.005 183.403,-0.002 233.798,-0.002c13.948,-0.001 27.268,5.806 36.759,16.028c9.492,10.221 14.299,23.934 13.266,37.844c-27.66,320.855 -297.112,573.119 -625.019,573.119c-327.907,-0 -597.359,-252.264 -624.706,-573.142c-1.026,-13.824 3.75,-27.451 13.182,-37.609c9.433,-10.158 22.669,-15.93 36.531,-15.93c50.351,-0.077 133.623,-0.135 233.542,-0.179c2.886,-0.001 5.4,1.967 6.091,4.769c0.691,2.801 -0.619,5.713 -3.174,7.054c-17.843,9.364 -42.24,22.169 -57.624,30.243c-2.307,1.21 -3.624,3.721 -3.31,6.307c0.314,2.586 2.194,4.709 4.723,5.332l76.562,18.871c2.263,0.558 4.03,2.325 4.588,4.587c0.557,2.263 -0.186,4.648 -1.93,6.194l-59.023,52.289c-1.95,1.728 -2.629,4.481 -1.705,6.917c0.924,2.436 3.258,4.047 5.863,4.046l78.853,0c2.331,0 4.469,1.293 5.552,3.357c1.083,2.063 0.932,4.557 -0.392,6.475l-44.794,64.895c-1.48,2.144 -1.48,4.98 0,7.124c1.48,2.144 4.132,3.149 6.661,2.526l76.562,-18.871c2.263,-0.558 4.648,0.185 6.194,1.93c1.545,1.744 1.995,4.202 1.169,6.381l-27.962,73.729c-0.924,2.436 -0.245,5.189 1.705,6.917c1.95,1.727 4.765,2.069 7.071,0.858l69.822,-36.645c2.063,-1.083 4.557,-0.932 6.475,0.392c1.918,1.324 2.944,3.602 2.663,5.916l-9.505,78.278c-0.314,2.586 1.004,5.097 3.31,6.308c2.307,1.21 5.122,0.869 7.072,-0.859l59.023,-52.29c1.744,-1.545 4.202,-1.995 6.381,-1.169c2.179,0.827 3.719,2.793 4,5.107l9.505,78.278c0.314,2.586 2.194,4.709 4.724,5.332c2.529,0.624 5.181,-0.382 6.66,-2.526l44.794,-64.895c1.324,-1.918 3.603,-2.943 5.916,-2.662c2.314,0.281 4.28,1.822 5.107,4.001l27.962,73.729c0.923,2.436 3.257,4.046 5.862,4.046c2.605,0 4.939,-1.61 5.863,-4.046l27.961,-73.729c0.827,-2.179 2.794,-3.72 5.107,-4.001c2.314,-0.281 4.592,0.744 5.916,2.662l44.794,64.895c1.48,2.144 4.131,3.15 6.66,2.526c2.53,-0.623 4.41,-2.746 4.724,-5.332l9.505,-78.278c0.281,-2.314 1.822,-4.28 4.001,-5.107c2.179,-0.826 4.636,-0.376 6.381,1.169l59.022,52.29c1.95,1.728 4.765,2.069 7.072,0.859c2.307,-1.211 3.624,-3.722 3.31,-6.308l-9.504,-78.278c-0.281,-2.314 0.744,-4.592 2.662,-5.916c1.918,-1.324 4.412,-1.475 6.475,-0.392l69.822,36.645c2.306,1.211 5.121,0.869 7.071,-0.858c1.95,-1.728 2.629,-4.481 1.705,-6.917l-27.962,-73.729c-0.826,-2.179 -0.376,-4.637 1.17,-6.381c1.545,-1.745 3.93,-2.488 6.193,-1.93l76.562,18.871c2.53,0.623 5.181,-0.382 6.661,-2.526c1.48,-2.144 1.48,-4.98 -0,-7.124l-44.794,-64.895c-1.324,-1.918 -1.475,-4.412 -0.392,-6.475c1.083,-2.064 3.221,-3.357 5.552,-3.357l78.853,0c2.605,0 4.939,-1.61 5.863,-4.046c0.924,-2.436 0.245,-5.189 -1.705,-6.917l-59.023,-52.289c-1.744,-1.546 -2.487,-3.931 -1.929,-6.194c0.557,-2.262 2.324,-4.029 4.587,-4.587l76.561,-18.871c2.53,-0.623 4.41,-2.745 4.724,-5.332c0.314,-2.586 -1.004,-5.097 -3.311,-6.307l-57.874,-30.373Zm88.071,-597.146l-0,313.496c-0,13.851 -11.229,25.079 -25.08,25.079c-13.851,0 -25.079,-11.228 -25.079,-25.079l-0,-313.496c-0,-13.851 11.228,-25.079 25.079,-25.079c13.851,-0 25.08,11.228 25.08,25.079Zm-0,424.431l-0,25.08c-0,13.851 -11.229,25.079 -25.08,25.079c-13.851,0 -25.079,-11.228 -25.079,-25.079l-0,-25.08c-0,-13.851 11.228,-25.079 25.079,-25.079c13.851,-0 25.08,11.228 25.08,25.079Zm111.006,-326.783l0,75.29c0,13.837 -11.217,25.054 -25.054,25.054l-0.051,0c-13.837,0 -25.054,-11.217 -25.054,-25.054l0,-75.29c0,-13.837 11.217,-25.054 25.054,-25.054l0.051,-0c13.837,0 25.054,11.217 25.054,25.054Zm-915.848,-96.836l0,275.877c0,13.851 -11.228,25.079 -25.079,25.079c-13.852,0 -25.08,-11.228 -25.08,-25.079l-0,-275.877c-0,-13.851 11.228,-25.079 25.079,-25.079c13.852,-0 25.08,11.228 25.08,25.079Zm0,425.187l0,50.159c0,13.851 -11.228,25.079 -25.079,25.079c-13.852,0 -25.08,-11.228 -25.08,-25.079l-0,-50.159c-0,-13.852 11.228,-25.08 25.079,-25.08c13.852,-0 25.08,11.228 25.08,25.08Zm915.848,-101.564l0,163.018c0,6.651 -2.642,13.03 -7.345,17.734c-4.704,4.703 -11.083,7.345 -17.734,7.345c-6.652,0 -13.031,-2.642 -17.734,-7.345c-4.704,-4.704 -7.346,-11.083 -7.346,-17.734l0,-163.018c0,-6.651 2.642,-13.031 7.346,-17.734c4.703,-4.703 11.082,-7.346 17.734,-7.346c6.651,0 13.03,2.643 17.734,7.346c4.703,4.703 7.345,11.083 7.345,17.734Zm-1028.71,-125.398l-0,200.637c-0,6.651 -2.642,13.03 -7.346,17.734c-4.703,4.703 -11.082,7.346 -17.734,7.346c-6.651,-0 -13.031,-2.643 -17.734,-7.346c-4.703,-4.704 -7.346,-11.083 -7.346,-17.734l0,-200.637c0,-6.651 2.643,-13.031 7.346,-17.734c4.703,-4.703 11.083,-7.346 17.734,-7.346c6.652,0 13.031,2.643 17.734,7.346c4.704,4.703 7.346,11.083 7.346,17.734Z" style="fill:#fa8e36;"/></g></svg>