<?xml version="1.0" encoding="UTF-8" standalone="no"?><!DOCTYPE svg PUBLIC "-//W3C//DTD SVG 1.1//EN" "http://www.w3.org/Graphics/SVG/1.1/DTD/svg11.dtd"><svg width="100%" height="100%" viewBox="0 0 1877 455" version="1.1" xmlns="http://www.w3.org/2000/svg" xmlns:xlink="http://www.w3.org/1999/xlink" xml:space="preserve" xmlns:serif="http://www.serif.com/" style="fill-rule:evenodd;clip-rule:evenodd;stroke-linejoin:round;stroke-miterlimit:2;"><g id="bomber-light"><path id="word-mark" serif:id="word mark" d="M1150.67,236.792l-21.923,43.245c-1.299,2.598 -3.247,4.6 -5.844,6.007c-2.598,1.407 -5.196,2.11 -7.793,2.11l-22.079,0c-3.68,0 -6.711,-0.974 -9.092,-2.922c-2.381,-1.948 -3.896,-3.68 -4.545,-5.195l-23.703,-46.756l0,100.655c0,2.381 -0.866,4.437 -2.597,6.169c-1.732,1.732 -3.788,2.598 -6.17,2.598l-58.769,-0c-2.381,-0 -4.437,-0.866 -6.169,-2.598c-1.732,-1.732 -2.598,-3.788 -2.598,-6.169l0,-209.751c0,-2.381 0.866,-4.438 2.598,-6.17c1.732,-1.731 3.788,-2.597 6.169,-2.597l59.419,-0c6.061,-0 10.715,2.922 13.962,8.767l20.477,37.516c4.405,8.069 12.864,13.089 22.057,13.089c9.193,0 17.653,-5.02 22.057,-13.089l20.478,-37.516c2.489,-4.48 5.805,-7.243 9.947,-8.289c0.902,-0.319 1.863,-0.478 2.884,-0.478l130.527,-0c30.737,-0 53.412,5.574 68.023,16.722c14.611,11.147 21.917,27.977 21.917,50.489l-0,0.974c-0,10.39 -2.814,19.265 -8.442,26.625c-5.628,7.36 -11.473,12.014 -17.534,13.962c8.442,2.597 15.694,8.28 21.755,17.046c6.061,8.767 9.091,18.778 9.091,30.034c0,47.622 -30.521,71.433 -91.563,71.433l-133.774,-0c-2.381,-0 -4.437,-0.866 -6.169,-2.598c-1.731,-1.732 -2.597,-3.788 -2.597,-6.169l-0,-97.144Zm137.669,-40.526c2.381,-3.247 3.572,-6.818 3.572,-10.715c0,-3.896 -1.136,-7.251 -3.409,-10.065c-2.273,-2.814 -5.574,-4.221 -9.903,-4.221l-26.018,0l-17.491,-12.5l-0,54.547l17.491,-12.5l26.018,0c4.329,0 7.576,-1.515 9.74,-4.546Zm-53.249,46.27l-0,56.82l17.491,-12.5l29.589,-0c4.979,-0 8.713,-1.678 11.202,-5.033c2.489,-3.355 3.734,-7.089 3.734,-11.202l0,-0.325c0,-4.113 -1.353,-7.684 -4.059,-10.715c-2.705,-3.03 -6.331,-4.545 -10.877,-4.545l-29.589,-0l-17.491,-12.5Zm-271.396,-33.282l0,39.613c0,22.295 -5.411,40.911 -16.234,55.847c-10.823,14.936 -25.002,25.542 -42.535,31.82c-17.533,6.277 -38.205,9.416 -62.016,9.416c-23.811,-0 -44.483,-3.139 -62.016,-9.416c-17.534,-6.278 -31.712,-16.884 -42.535,-31.82c-10.823,-14.936 -16.235,-33.768 -16.235,-56.497l0,-38.314c0,-32.685 11.202,-57.145 33.606,-73.38c22.404,-16.235 51.464,-24.352 87.18,-24.352c35.716,-0 64.776,8.117 87.18,24.352c22.404,16.235 33.605,40.478 33.605,72.731Zm-153.904,-6.169l0,51.951c0,8.875 2.976,15.693 8.929,20.455c5.953,4.763 14.016,7.144 24.19,7.144c10.174,-0 18.237,-2.436 24.189,-7.306c5.953,-4.87 8.929,-11.743 8.929,-20.618l0,-51.301c0,-8.875 -2.976,-15.748 -8.929,-20.618c-5.952,-4.871 -14.015,-7.306 -24.189,-7.306c-10.174,0 -18.237,2.381 -24.19,7.143c-5.953,4.762 -8.929,11.581 -8.929,20.456Zm-97.841,68.185c-0,47.622 -30.521,71.433 -91.563,71.433l-133.774,-0c-2.381,-0 -4.437,-0.866 -6.169,-2.598c-1.732,-1.732 -2.597,-3.788 -2.597,-6.169l-0,-209.751c-0,-2.381 0.865,-4.438 2.597,-6.17c1.732,-1.731 3.788,-2.597 6.169,-2.597l130.527,-0c30.737,-0 53.412,5.574 68.023,16.722c14.611,11.147 21.917,27.977 21.917,50.489l-0,0.974c-0,10.39 -2.814,19.265 -8.442,26.625c-5.628,7.36 -11.473,12.014 -17.534,13.962c8.442,2.597 15.694,8.28 21.755,17.046c6.061,8.767 9.091,18.778 9.091,30.034Zm-149.683,-28.734l-0,56.82l17.491,-12.5l29.589,-0c4.979,-0 8.713,-1.678 11.202,-5.033c2.489,-3.355 3.734,-7.089 3.734,-11.202l-0,-0.325c-0,-4.113 -1.353,-7.684 -4.059,-10.715c-2.705,-3.03 -6.331,-4.545 -10.877,-4.545l-29.589,-0l-17.491,-12.5Zm53.249,-46.27c2.381,-3.247 3.572,-6.818 3.572,-10.715c-0,-3.896 -1.137,-7.251 -3.409,-10.065c-2.273,-2.814 -5.574,-4.221 -9.903,-4.221l-26.018,0l-17.491,-12.5l-0,54.547l17.491,-12.5l26.018,0c4.329,0 7.576,-1.515 9.74,-4.546Zm868.452,83.122l129.553,-0c2.381,-0 4.437,0.866 6.169,2.597c1.732,1.732 2.597,3.788 2.597,6.169l0,45.782c0,2.381 -0.865,4.437 -2.597,6.169c-1.732,1.732 -3.788,2.598 -6.169,2.598l-205.206,-0c-2.381,-0 -4.437,-0.866 -6.169,-2.598c-1.732,-1.732 -2.598,-3.788 -2.598,-6.169l0,-209.751c0,-2.381 0.866,-4.438 2.598,-6.17c1.732,-1.731 3.788,-2.597 6.169,-2.597l201.959,-0c2.381,-0 4.437,0.866 6.169,2.597c1.732,1.732 2.598,3.789 2.598,6.17l-0,45.781c-0,2.381 -0.866,4.438 -2.598,6.169c-1.732,1.732 -3.788,2.598 -6.169,2.598l-126.306,-0l0,20.456l108.448,-0c2.381,-0 4.437,0.865 6.169,2.597c1.732,1.732 2.597,3.788 2.597,6.169l0,42.21c0,2.381 -0.865,4.438 -2.597,6.169c-1.732,1.732 -3.788,2.598 -6.169,2.598l-108.448,0l0,20.456Zm392.336,53.249c0.433,0.866 0.65,2.057 0.65,3.572c-0,1.515 -0.704,2.976 -2.111,4.383c-1.407,1.407 -3.084,2.111 -5.032,2.111l-73.706,-0c-6.494,-0 -11.039,-2.706 -13.637,-8.118l-28.573,-64.289l-27.274,0l0,63.64c0,2.381 -0.866,4.437 -2.597,6.169c-1.732,1.732 -3.788,2.598 -6.17,2.598l-70.133,-0c-2.381,-0 -4.438,-0.866 -6.169,-2.598c-1.732,-1.732 -2.598,-3.788 -2.598,-6.169l0,-209.751c0,-2.381 0.866,-4.438 2.598,-6.17c1.731,-1.731 3.788,-2.597 6.169,-2.597l126.305,-0c29.656,-0 53.142,7.035 70.459,21.105c17.316,14.07 25.975,33.227 25.975,57.47c-0,29.439 -11.364,50.761 -34.093,63.965l39.937,74.679Zm-149.683,-169.326l0,59.417l18.248,-12.5l26.505,0c4.763,0 8.442,-1.569 11.04,-4.708c2.597,-3.139 3.896,-7.089 3.896,-11.851c0,-4.762 -1.244,-8.929 -3.734,-12.501c-2.489,-3.571 -6.223,-5.357 -11.202,-5.357l-26.505,-0l-18.248,-12.5Z" style="fill:#e8eff3;"/><g id="logo-mark" serif:id="logo mark"><path id="bomb" d="M232.332,99.884c29.28,10.214 50.288,38.071 50.288,70.833l-0,83.341c-0,41.422 -33.579,75 -75,75c-41.422,0 -75,-33.578 -75,-75l-0,-83.341c-0,-32.762 21.007,-60.619 50.287,-70.833l-14.892,-10.887c-1.433,-1.048 -2.493,-2.526 -3.028,-4.218l-17.329,-54.876c-1.599,-5.064 -0.689,-10.588 2.45,-14.871c3.139,-4.284 8.132,-6.815 13.443,-6.815l4.21,0c1.463,0 2.819,0.768 3.572,2.023l19.917,33.195c0.482,0.802 1.44,1.185 2.342,0.935c0.903,-0.25 1.528,-1.071 1.528,-2.007l-0,-34.03c-0,-0.038 -0,-0.077 0,-0.116c0.062,-4.548 3.769,-8.217 8.333,-8.217l8.333,0c4.564,0 8.271,3.669 8.333,8.217c0.001,0.039 0.001,0.078 0.001,0.116l-0,34.03c-0,0.936 0.624,1.757 1.527,2.007c0.902,0.25 1.861,-0.133 2.342,-0.935l19.917,-33.195c0.753,-1.255 2.109,-2.023 3.573,-2.023l3.923,0c5.311,0 10.304,2.531 13.443,6.815c3.139,4.283 4.049,9.807 2.45,14.871l-17.34,54.911c-0.528,1.671 -1.569,3.133 -2.975,4.178l-14.648,10.892Zm-24.712,195.841c-11.499,-0 -20.834,4.667 -20.834,10.417c0,5.749 9.335,10.416 20.834,10.416c11.498,0 20.833,-4.667 20.833,-10.416c-0,-5.75 -9.335,-10.417 -20.833,-10.417Zm-26.009,-130.473c-0,-3.322 -1.32,-6.508 -3.669,-8.857c-2.348,-2.348 -5.535,-3.668 -8.857,-3.668c-3.322,-0 -6.509,1.32 -8.858,3.668c-2.349,2.349 -3.668,5.535 -3.668,8.857l-0,74.95c-0,3.322 1.319,6.508 3.668,8.857c2.349,2.348 5.536,3.668 8.858,3.668c3.322,0 6.509,-1.32 8.857,-3.668c2.349,-2.349 3.669,-5.535 3.669,-8.857l-0,-74.95Z" style="fill:#e8eff3;"/><path id="scene" d="M320.023,249.602c-0.849,-0.446 -1.284,-1.413 -1.055,-2.344c0.229,-0.93 1.064,-1.585 2.023,-1.585c33.238,-0.001 60.94,-0 77.685,-0c4.634,-0.001 9.06,1.929 12.214,5.325c3.154,3.397 4.751,7.953 4.408,12.575c-9.191,106.612 -98.723,190.433 -207.678,190.433c-108.956,0 -198.488,-83.821 -207.575,-190.441c-0.34,-4.593 1.247,-9.121 4.381,-12.496c3.134,-3.375 7.532,-5.293 12.138,-5.293c16.73,-0.026 44.4,-0.045 77.6,-0.06c0.959,-0 1.794,0.654 2.024,1.585c0.23,0.931 -0.206,1.898 -1.055,2.344c-5.929,3.111 -14.035,7.366 -19.147,10.049c-0.766,0.402 -1.204,1.236 -1.1,2.096c0.105,0.859 0.729,1.564 1.57,1.771l25.44,6.27c0.751,0.186 1.338,0.773 1.524,1.525c0.185,0.752 -0.062,1.544 -0.641,2.058l-19.612,17.374c-0.648,0.574 -0.874,1.489 -0.567,2.298c0.307,0.81 1.083,1.345 1.948,1.345l26.201,-0c0.775,-0 1.485,0.429 1.845,1.115c0.36,0.686 0.31,1.514 -0.13,2.152l-14.884,21.563c-0.492,0.712 -0.492,1.654 -0,2.367c0.492,0.712 1.373,1.046 2.213,0.839l25.44,-6.27c0.752,-0.186 1.544,0.061 2.058,0.641c0.513,0.58 0.663,1.396 0.388,2.12l-9.291,24.499c-0.307,0.809 -0.081,1.724 0.567,2.298c0.648,0.574 1.583,0.687 2.349,0.285l23.2,-12.176c0.686,-0.36 1.515,-0.31 2.152,0.13c0.637,0.44 0.978,1.197 0.885,1.966l-3.159,26.01c-0.104,0.859 0.334,1.693 1.1,2.096c0.767,0.402 1.702,0.288 2.35,-0.286l19.612,-17.374c0.579,-0.514 1.396,-0.663 2.12,-0.389c0.724,0.275 1.236,0.928 1.329,1.697l3.159,26.01c0.104,0.859 0.729,1.565 1.569,1.772c0.841,0.207 1.722,-0.127 2.213,-0.84l14.884,-21.563c0.44,-0.637 1.197,-0.978 1.966,-0.884c0.769,0.093 1.422,0.605 1.697,1.329l9.291,24.498c0.307,0.81 1.082,1.345 1.948,1.345c0.865,-0 1.641,-0.535 1.948,-1.345l9.291,-24.498c0.274,-0.724 0.928,-1.236 1.696,-1.329c0.769,-0.094 1.526,0.247 1.966,0.884l14.884,21.563c0.492,0.713 1.373,1.047 2.213,0.84c0.841,-0.207 1.465,-0.913 1.57,-1.772l3.158,-26.01c0.093,-0.769 0.605,-1.422 1.329,-1.697c0.724,-0.274 1.541,-0.125 2.121,0.389l19.611,17.374c0.648,0.574 1.584,0.688 2.35,0.286c0.766,-0.403 1.204,-1.237 1.1,-2.096l-3.158,-26.01c-0.094,-0.769 0.247,-1.526 0.884,-1.966c0.638,-0.44 1.466,-0.49 2.152,-0.13l23.2,12.176c0.766,0.402 1.702,0.289 2.35,-0.285c0.648,-0.574 0.873,-1.489 0.566,-2.298l-9.291,-24.499c-0.275,-0.724 -0.125,-1.54 0.389,-2.12c0.513,-0.58 1.306,-0.827 2.058,-0.641l25.439,6.27c0.841,0.207 1.722,-0.127 2.213,-0.839c0.492,-0.713 0.492,-1.655 0,-2.367l-14.884,-21.563c-0.439,-0.638 -0.489,-1.466 -0.13,-2.152c0.36,-0.686 1.071,-1.115 1.845,-1.115l26.201,-0c0.866,-0 1.641,-0.535 1.948,-1.345c0.307,-0.809 0.082,-1.724 -0.566,-2.298l-19.612,-17.374c-0.58,-0.514 -0.827,-1.306 -0.641,-2.058c0.185,-0.752 0.772,-1.339 1.524,-1.525l25.439,-6.27c0.841,-0.207 1.465,-0.912 1.57,-1.771c0.104,-0.86 -0.334,-1.694 -1.1,-2.096l-19.23,-10.092Zm29.263,-198.417l0,104.167c0,4.602 -3.731,8.333 -8.333,8.333c-4.602,0 -8.333,-3.731 -8.333,-8.333l-0,-104.167c-0,-4.602 3.731,-8.333 8.333,-8.333c4.602,-0 8.333,3.731 8.333,8.333Zm0,141.028l0,8.333c0,4.602 -3.731,8.333 -8.333,8.333c-4.602,0 -8.333,-3.731 -8.333,-8.333l-0,-8.333c-0,-4.603 3.731,-8.334 8.333,-8.334c4.602,0 8.333,3.731 8.333,8.334Zm36.885,-108.582l-0,25.017c-0,4.598 -3.727,8.325 -8.325,8.325l-0.017,-0c-4.597,-0 -8.325,-3.727 -8.325,-8.325l0,-25.017c0,-4.598 3.728,-8.325 8.325,-8.325l0.017,0c4.598,0 8.325,3.727 8.325,8.325Zm-304.313,-32.176l-0,91.667c-0,4.602 -3.731,8.333 -8.334,8.333c-4.602,-0 -8.333,-3.731 -8.333,-8.333l-0,-91.667c-0,-4.602 3.731,-8.333 8.333,-8.333c4.603,-0 8.334,3.731 8.334,8.333Zm-0,141.279l-0,16.666c-0,4.603 -3.731,8.334 -8.334,8.334c-4.602,-0 -8.333,-3.731 -8.333,-8.334l-0,-16.666c-0,-4.603 3.731,-8.334 8.333,-8.334c4.603,0 8.334,3.731 8.334,8.334Zm304.313,-33.747l-0,54.166c-0,2.21 -0.878,4.33 -2.441,5.893c-1.563,1.563 -3.682,2.441 -5.892,2.441c-2.21,-0 -4.33,-0.878 -5.893,-2.441c-1.563,-1.563 -2.441,-3.683 -2.441,-5.893l0,-54.166c0,-2.211 0.878,-4.33 2.441,-5.893c1.563,-1.563 3.683,-2.441 5.893,-2.441c2.21,0 4.329,0.878 5.892,2.441c1.563,1.563 2.441,3.682 2.441,5.893Zm-341.813,-41.667l-0,66.667c-0,2.21 -0.878,4.329 -2.441,5.892c-1.563,1.563 -3.683,2.441 -5.893,2.441c-2.21,-0 -4.329,-0.878 -5.892,-2.441c-1.563,-1.563 -2.441,-3.682 -2.441,-5.892l-0,-66.667c-0,-2.21 0.878,-4.33 2.441,-5.893c1.563,-1.562 3.682,-2.44 5.892,-2.44c2.21,-0 4.33,0.878 5.893,2.44c1.563,1.563 2.441,3.683 2.441,5.893Z" style="fill:#fa8e36;"/></g></g></svg>