<?xml version="1.0" encoding="UTF-8" standalone="no"?>
<!DOCTYPE svg PUBLIC "-//W3C//DTD SVG 1.1//EN" "http://www.w3.org/Graphics/SVG/1.1/DTD/svg11.dtd">
<svg width="100%" height="100%" viewBox="0 0 345 60" version="1.1" xmlns="http://www.w3.org/2000/svg" xmlns:xlink="http://www.w3.org/1999/xlink" xml:space="preserve" xmlns:serif="http://www.serif.com/" style="fill-rule:evenodd;clip-rule:evenodd;stroke-linejoin:round;stroke-miterlimit:1.41421;">
    <path id="_-006ca2ff" serif:id="#006ca2ff" d="M35.632,2.144c3.193,-0.716 6.488,-0.999 9.754,-0.759c4.938,0.35 9.819,1.956 13.87,4.827c2.098,1.477 3.963,3.282 5.521,5.321c-1.574,-0.935 -3.279,-1.633 -5.022,-2.185c-3.681,-1.148 -7.633,-1.497 -11.44,-0.83c-0.689,0.127 -1.429,0.205 -2.007,0.637c-0.222,0.16 -0.407,0.427 -0.342,0.713c0.092,0.407 0.46,0.659 0.768,0.904c3.995,2.842 7.071,6.959 8.634,11.609c1.501,4.413 1.638,9.278 0.385,13.769c-0.498,1.799 -1.214,3.538 -2.126,5.167c-0.211,0.408 -0.488,0.779 -0.663,1.206c-0.784,1.404 -1.749,2.702 -2.797,3.92c-2.922,3.377 -6.593,6.071 -10.613,7.999c-3.202,1.594 -6.609,2.794 -10.125,3.469c-4.424,0.849 -9.037,0.858 -13.426,-0.204c-2.454,-0.591 -4.831,-1.513 -7.025,-2.763c-2.949,-1.676 -5.555,-3.951 -7.611,-6.649c2.02,1.186 4.233,2.024 6.5,2.598c3.252,0.813 6.674,0.992 9.982,0.416c0.655,-0.126 1.352,-0.199 1.917,-0.585c0.254,-0.163 0.483,-0.45 0.411,-0.769c-0.093,-0.407 -0.461,-0.657 -0.768,-0.901c-3.993,-2.845 -7.069,-6.961 -8.633,-11.609c-0.963,-2.835 -1.367,-5.856 -1.197,-8.844c0.206,-3.85 1.403,-7.636 3.419,-10.919c0.313,-0.675 0.724,-1.298 1.137,-1.914c3.061,-4.43 7.389,-7.909 12.213,-10.259c2.944,-1.489 6.062,-2.645 9.284,-3.365m-3.586,18.111c-2.798,0.279 -5.422,1.86 -6.995,4.187c-1.301,1.888 -1.883,4.249 -1.627,6.527c0.223,2.12 1.178,4.151 2.662,5.68c1.485,1.548 3.499,2.579 5.625,2.872c2.219,0.319 4.544,-0.158 6.449,-1.344c1.794,-1.102 3.211,-2.804 3.967,-4.769c0.826,-2.125 0.866,-4.542 0.112,-6.693c-0.693,-2.007 -2.072,-3.766 -3.849,-4.928c-1.852,-1.227 -4.137,-1.77 -6.344,-1.532Z" style="fill:none;stroke:#45AAFF;stroke-width:2px;"/>
    <g>
        <path d="M87.297,44.938c-2.704,-1.488 -4.824,-3.536 -6.36,-6.144c-1.536,-2.608 -2.304,-5.544 -2.304,-8.808c0,-3.264 0.768,-6.2 2.304,-8.808c1.536,-2.608 3.664,-4.656 6.384,-6.144c2.72,-1.488 5.76,-2.232 9.12,-2.232c2.624,0 5.024,0.44 7.2,1.32c2.176,0.88 4.032,2.184 5.568,3.912l-3.12,3.024c-2.528,-2.656 -5.68,-3.984 -9.456,-3.984c-2.496,0 -4.752,0.56 -6.768,1.68c-2.016,1.12 -3.592,2.664 -4.728,4.632c-1.136,1.968 -1.704,4.168 -1.704,6.6c0,2.432 0.568,4.632 1.704,6.6c1.136,1.968 2.712,3.512 4.728,4.632c2.016,1.12 4.272,1.68 6.768,1.68c3.744,0 6.896,-1.344 9.456,-4.032l3.12,3.024c-1.536,1.728 -3.4,3.04 -5.592,3.936c-2.192,0.896 -4.6,1.344 -7.224,1.344c-3.36,0 -6.392,-0.744 -9.096,-2.232Z" style="fill:#222222;fill-rule:nonzero;"/>
        <path d="M137.913,21.346l-12.336,27.984c-1.088,2.592 -2.36,4.416 -3.816,5.472c-1.456,1.056 -3.208,1.584 -5.256,1.584c-1.248,0 -2.456,-0.2 -3.624,-0.6c-1.168,-0.4 -2.136,-0.984 -2.904,-1.752l1.968,-3.456c1.312,1.248 2.832,1.872 4.56,1.872c1.12,0 2.056,-0.296 2.808,-0.888c0.752,-0.592 1.432,-1.608 2.04,-3.048l0.816,-1.776l-11.232,-25.392l4.8,0l8.88,20.352l8.784,-20.352l4.512,0Z" style="fill:#222222;fill-rule:nonzero;"/>
        <g>
            <path d="M145.665,45.394c-2.032,-1.12 -3.624,-2.664 -4.776,-4.632c-1.152,-1.968 -1.728,-4.2 -1.728,-6.696c0,-2.496 0.576,-4.728 1.728,-6.696c1.152,-1.968 2.744,-3.504 4.776,-4.608c2.032,-1.104 4.344,-1.656 6.936,-1.656c2.304,0 4.36,0.464 6.168,1.392c1.808,0.928 3.208,2.272 4.2,4.032l-3.504,2.256c-0.8,-1.216 -1.792,-2.128 -2.976,-2.736c-1.184,-0.608 -2.496,-0.912 -3.936,-0.912c-1.664,0 -3.16,0.368 -4.488,1.104c-1.328,0.736 -2.368,1.784 -3.12,3.144c-0.752,1.36 -1.128,2.92 -1.128,4.68c0,1.792 0.376,3.368 1.128,4.728c0.752,1.36 1.792,2.408 3.12,3.144c1.328,0.736 2.824,1.104 4.488,1.104c1.44,0 2.752,-0.304 3.936,-0.912c1.184,-0.608 2.176,-1.52 2.976,-2.736l3.504,2.208c-0.992,1.76 -2.392,3.112 -4.2,4.056c-1.808,0.944 -3.864,1.416 -6.168,1.416c-2.592,0 -4.904,-0.56 -6.936,-1.68Z" style="fill:#222222;fill-rule:nonzero;"/>
            <rect x="168.585" y="11.17" width="4.608" height="35.616" style="fill:#222222;fill-rule:nonzero;"/>
            <path d="M186.057,45.394c-2.016,-1.12 -3.592,-2.664 -4.728,-4.632c-1.136,-1.968 -1.704,-4.2 -1.704,-6.696c0,-2.496 0.568,-4.728 1.704,-6.696c1.136,-1.968 2.712,-3.504 4.728,-4.608c2.016,-1.104 4.288,-1.656 6.816,-1.656c2.528,0 4.792,0.552 6.792,1.656c2,1.104 3.568,2.64 4.704,4.608c1.136,1.968 1.704,4.2 1.704,6.696c0,2.496 -0.568,4.728 -1.704,6.696c-1.136,1.968 -2.704,3.512 -4.704,4.632c-2,1.12 -4.264,1.68 -6.792,1.68c-2.528,0 -4.8,-0.56 -6.816,-1.68Zm11.208,-3.48c1.296,-0.752 2.312,-1.808 3.048,-3.168c0.736,-1.36 1.104,-2.92 1.104,-4.68c0,-1.76 -0.368,-3.32 -1.104,-4.68c-0.736,-1.36 -1.752,-2.408 -3.048,-3.144c-1.296,-0.736 -2.76,-1.104 -4.392,-1.104c-1.632,0 -3.096,0.368 -4.392,1.104c-1.296,0.736 -2.32,1.784 -3.072,3.144c-0.752,1.36 -1.128,2.92 -1.128,4.68c0,1.76 0.376,3.32 1.128,4.68c0.752,1.36 1.776,2.416 3.072,3.168c1.296,0.752 2.76,1.128 4.392,1.128c1.632,0 3.096,-0.376 4.392,-1.128Z" style="fill:#222222;fill-rule:nonzero;"/>
            <path d="M233.745,23.914c1.904,1.872 2.856,4.616 2.856,8.232l0,14.64l-4.608,0l0,-14.112c0,-2.464 -0.592,-4.32 -1.776,-5.568c-1.184,-1.248 -2.88,-1.872 -5.088,-1.872c-2.496,0 -4.464,0.728 -5.904,2.184c-1.44,1.456 -2.16,3.544 -2.16,6.264l0,13.104l-4.608,0l0,-25.44l4.416,0l0,3.84c0.928,-1.312 2.184,-2.32 3.768,-3.024c1.584,-0.704 3.384,-1.056 5.4,-1.056c3.232,0 5.8,0.936 7.704,2.808Z" style="fill:#222222;fill-rule:nonzero;"/>
        </g>
        <g>
            <path d="M268.185,35.602l-20.64,0c0.288,2.24 1.272,4.04 2.952,5.4c1.68,1.36 3.768,2.04 6.264,2.04c3.04,0 5.488,-1.024 7.344,-3.072l2.544,2.976c-1.152,1.344 -2.584,2.368 -4.296,3.072c-1.712,0.704 -3.624,1.056 -5.736,1.056c-2.688,0 -5.072,-0.552 -7.152,-1.656c-2.08,-1.104 -3.688,-2.648 -4.824,-4.632c-1.136,-1.984 -1.704,-4.224 -1.704,-6.72c0,-2.464 0.552,-4.688 1.656,-6.672c1.104,-1.984 2.624,-3.528 4.56,-4.632c1.936,-1.104 4.12,-1.656 6.552,-1.656c2.432,0 4.6,0.552 6.504,1.656c1.904,1.104 3.392,2.648 4.464,4.632c1.072,1.984 1.608,4.256 1.608,6.816c0,0.352 -0.032,0.816 -0.096,1.392Zm-18.024,-8.592c-1.488,1.344 -2.36,3.104 -2.616,5.28l16.32,0c-0.256,-2.144 -1.128,-3.896 -2.616,-5.256c-1.488,-1.36 -3.336,-2.04 -5.544,-2.04c-2.208,0 -4.056,0.672 -5.544,2.016Z" style="fill:#222222;fill-rule:nonzero;"/>
            <path d="M275.337,13.186l14.16,0c3.552,0 6.704,0.704 9.456,2.112c2.752,1.408 4.888,3.384 6.408,5.928c1.52,2.544 2.28,5.464 2.28,8.76c0,3.296 -0.76,6.216 -2.28,8.76c-1.52,2.544 -3.656,4.52 -6.408,5.928c-2.752,1.408 -5.904,2.112 -9.456,2.112l-14.16,0l0,-33.6Zm13.872,29.424c2.72,0 5.112,-0.528 7.176,-1.584c2.064,-1.056 3.656,-2.536 4.776,-4.44c1.12,-1.904 1.68,-4.104 1.68,-6.6c0,-2.496 -0.56,-4.696 -1.68,-6.6c-1.12,-1.904 -2.712,-3.384 -4.776,-4.44c-2.064,-1.056 -4.456,-1.584 -7.176,-1.584l-9.072,0l0,25.248l9.072,0Z" style="fill:#222222;fill-rule:nonzero;"/>
            <path d="M334.905,46.786l-10.08,-13.872l-9.936,13.872l-5.52,0l12.624,-17.232l-11.856,-16.368l5.472,0l9.408,12.912l9.312,-12.912l5.232,0l-11.856,16.224l12.72,17.376l-5.52,0Z" style="fill:#222222;fill-rule:nonzero;"/>
        </g>
    </g>
</svg>
