<?xml version="1.0" encoding="UTF-8" standalone="no"?>
<!DOCTYPE svg PUBLIC "-//W3C//DTD SVG 1.1//EN" "http://www.w3.org/Graphics/SVG/1.1/DTD/svg11.dtd">
<!-- Created with Vectornator (http://vectornator.io/) -->
<svg height="100%" stroke-miterlimit="10" style="fill-rule:nonzero;clip-rule:evenodd;stroke-linecap:round;stroke-linejoin:round;" version="1.1" viewBox="0 0 67.5978 60" width="100%" xml:space="preserve" xmlns="http://www.w3.org/2000/svg" xmlns:xlink="http://www.w3.org/1999/xlink">
<defs/>
<g id="Untitled">
<path d="M35.632 2.144C38.825 1.428 42.12 1.145 45.386 1.385C50.324 1.735 55.205 3.341 59.256 6.212C61.354 7.689 63.219 9.494 64.777 11.533C63.203 10.598 61.498 9.9 59.755 9.348C56.074 8.2 52.122 7.851 48.315 8.518C47.626 8.645 46.886 8.723 46.308 9.155C46.086 9.315 45.901 9.582 45.966 9.868C46.058 10.275 46.426 10.527 46.734 10.772C50.729 13.614 53.805 17.731 55.368 22.381C56.869 26.794 57.006 31.659 55.753 36.15C55.255 37.949 54.539 39.688 53.627 41.317C53.416 41.725 53.139 42.096 52.964 42.523C52.18 43.927 51.215 45.225 50.167 46.443C47.245 49.82 43.574 52.514 39.554 54.442C36.352 56.036 32.945 57.236 29.429 57.911C25.005 58.76 20.392 58.769 16.003 57.707C13.549 57.116 11.172 56.194 8.978 54.944C6.029 53.268 3.423 50.993 1.367 48.295C3.387 49.481 5.6 50.319 7.867 50.893C11.119 51.706 14.541 51.885 17.849 51.309C18.504 51.183 19.201 51.11 19.766 50.724C20.02 50.561 20.249 50.274 20.177 49.955C20.084 49.548 19.716 49.298 19.409 49.054C15.416 46.209 12.34 42.093 10.776 37.445C9.813 34.61 9.409 31.589 9.579 28.601C9.785 24.751 10.982 20.965 12.998 17.682C13.311 17.007 13.722 16.384 14.135 15.768C17.196 11.338 21.524 7.859 26.348 5.509C29.292 4.02 32.41 2.864 35.632 2.144M32.046 20.255C29.248 20.534 26.624 22.115 25.051 24.442C23.75 26.33 23.168 28.691 23.424 30.969C23.647 33.089 24.602 35.12 26.086 36.649C27.571 38.197 29.585 39.228 31.711 39.521C33.93 39.84 36.255 39.363 38.16 38.177C39.954 37.075 41.371 35.373 42.127 33.408C42.953 31.283 42.993 28.866 42.239 26.715C41.546 24.708 40.167 22.949 38.39 21.787C36.538 20.56 34.253 20.017 32.046 20.255Z" fill="none" opacity="1" stroke="#45aaff" stroke-linecap="butt" stroke-linejoin="round" stroke-width="1.6"/>
</g>
</svg>
