<?xml version="1.0" encoding="UTF-8"?>
<svg xmlns="http://www.w3.org/2000/svg" xmlns:xlink="http://www.w3.org/1999/xlink" viewBox="0 0 250 68"><defs><style>.cls-1{isolation:isolate;}.cls-2{fill:#231f20;}.cls-3{fill:none;}.cls-4{fill:#00416b;}.cls-5{opacity:0.8;mix-blend-mode:multiply;fill:url(#linear-gradient);}.cls-6{fill:#4197cb;}</style><linearGradient id="linear-gradient" x1="11.38853" y1="6.37167" x2="36.97231" y2="39.08004" gradientUnits="userSpaceOnUse"><stop offset="0" stop-color="#fff" stop-opacity="0"/><stop offset="0.34941" stop-color="#cdcccc" stop-opacity="0.22668"/><stop offset="0.889" stop-color="#454142" stop-opacity="0.84698"/><stop offset="1" stop-color="#231f20"/></linearGradient></defs><title>SPDX_Logo</title><g class="cls-1"><g id="Layer_1" data-name="Layer 1"><path class="cls-2" d="M89.2486,43.20761v.244c0,1.46486,2.00174,3.46641,6.4448,3.46641,3.66178,0,4.8334-1.22046,4.8334-2.34324,0-1.6112-1.904-2.58765-6.49344-4.1502C87.9791,38.42286,80.021,35.49351,80.021,27.63288c0-7.27471,6.20058-11.81526,14.89113-11.81526,8.88592,0,15.57473,4.73572,15.57473,12.30349v.53706h-9.52067v-.34169c0-1.85541-1.904-4.05252-5.85869-4.05252-3.32008,0-4.63823,1.31834-4.63823,2.58765,0,1.51351,1.75753,2.29479,6.29827,3.85715,5.27279,1.85521,14.25639,4.97992,14.25639,13.329,0,7.42125-6.4446,11.327-15.13535,11.327-9.12993,0-16.16063-4.24789-16.16063-11.71778v-.43938Z"/><path class="cls-2" d="M122.69364,16.54986H139.489c10.10658,0,14.94018,6.933,14.94018,14.59828,0,8.056-4.8336,14.84249-14.94018,14.84249h-7.03051v8.6417h-9.76487Zm9.76487,8.88592V37.10471H138.952c4.10116,0,5.61467-2.53881,5.61467-5.90773,0-3.027-1.51351-5.7612-5.61467-5.7612Z"/><path class="cls-2" d="M165.513,16.54986h17.67416c11.91314,0,18.01585,8.69055,18.01585,19.04134,0,10.39943-6.10271,19.04113-18.01585,19.04113H165.513Zm9.76488,9.47183V45.20955h7.17684c5.81,0,8.88612-3.906,8.88612-9.61835s-3.07607-9.56951-8.88612-9.56951Z"/><path class="cls-2" d="M244.707,16.54986,231.915,35.49351,245,54.63233H233.13589l-7.07954-10.44827-7.03051,10.44827H207.16173L220.2463,35.49351,207.45439,16.54986H218.9768l7.07955,10.39943,7.12819-10.39943Z"/><polygon class="cls-3" points="17.855 49.983 48.918 18.985 17.855 18.985 17.855 49.983"/><polygon class="cls-4" points="17.855 18.985 48.918 18.985 61.691 6.13 5 6.13 5 6.342 5 18.837 5 62.757 17.855 49.983 17.855 18.985"/><polygon class="cls-5" points="17.855 18.985 48.918 18.985 61.691 6.13 5 6.13 5 6.342 5 18.837 5 62.757 17.855 49.983 17.855 18.985"/><polygon class="cls-6" points="48.918 18.985 17.855 49.983 5 62.772 17.855 62.772 23.726 62.772 35.129 51.187 35.129 39.552 35.129 36.259 38.487 36.259 50.119 36.259 61.643 24.785 61.643 18.985 61.643 6.064 48.918 18.985"/><polygon class="cls-6" points="38.343 39.472 38.343 47.993 38.343 62.772 61.643 62.772 61.643 39.472 46.926 39.472 38.343 39.472"/></g></g></svg>